<svg width="219" height="118" viewBox="0 0 219 118" fill="none" xmlns="http://www.w3.org/2000/svg">
<path d="M95.9394 2H7.99999C4.68629 2 2 4.68629 2 8V102.76C2 106.074 4.68629 108.76 8 108.76H196C199.314 108.76 202 106.074 202 102.76V7.99999C202 4.68628 199.314 2 196 2H118.55" stroke="#296140" stroke-width="4" stroke-linecap="round" stroke-linejoin="round"/>
<path d="M131.371 19.7156H143.026" stroke="#296140" stroke-width="4" stroke-linecap="round" stroke-linejoin="round"/>
<path d="M153.282 19.7156H166.802" stroke="#296140" stroke-width="4" stroke-linecap="round" stroke-linejoin="round"/>
<path d="M174.96 19.7156H189.413" stroke="#296140" stroke-width="4" stroke-linecap="round" stroke-linejoin="round"/>
<path d="M26 33.9348H72.8531" stroke="#296140" stroke-width="4" stroke-linecap="round" stroke-linejoin="round"/>
<path d="M26 44.6574H91.7343" stroke="#296140" stroke-width="4" stroke-linecap="round" stroke-linejoin="round"/>
<path fill-rule="evenodd" clip-rule="evenodd" d="M24.331 64.9744C24.331 62.7652 26.1219 60.9744 28.331 60.9744H147.331C149.54 60.9744 151.331 62.7652 151.331 64.9744V76.7879C151.331 78.997 149.54 80.7879 147.331 80.7879H28.331C26.1219 80.7879 24.331 78.997 24.331 76.7879V64.9744Z" fill="#A8D9BD" stroke="#296140" stroke-width="4" stroke-linecap="round" stroke-linejoin="round"/>
<circle cx="182" cy="81" r="37" fill="white"/>
<circle cx="182" cy="81" r="29.9524" fill="#A8D9BD" stroke="#296140" stroke-width="4" stroke-linecap="round" stroke-linejoin="round"/>
<path d="M190.222 72.7778C190.222 72.7778 187.873 68.6667 182 68.6667C176.127 68.6667 174.952 71.6032 174.952 74.5397C174.952 78.0638 180.531 79.3115 184.349 81C188.166 82.6883 190.222 82.7619 190.222 86.2857C190.222 90.0938 188 92.746 183.175 92.746C174.952 92.746 173.19 88.6349 173.19 88.6349" stroke="#296140" stroke-width="4" stroke-linecap="round" stroke-linejoin="round"/>
<path d="M182 68.6667V62.7936" stroke="#296140" stroke-width="4" stroke-linecap="round" stroke-linejoin="round"/>
<path d="M182 92.746V99.7937" stroke="#296140" stroke-width="4" stroke-linecap="round" stroke-linejoin="round"/>
</svg>
