<svg id="Capa_1" data-name="Capa 1" xmlns="http://www.w3.org/2000/svg" viewBox="0 0 629.13 88.44"><defs><style>.cls-1{fill:#fff;}.cls-2{fill:#b3975a;}.cls-3{fill:#5a0c32;}</style></defs><path class="cls-1" d="M159.79,63.48l-.16-27.3a12.09,12.09,0,0,1-.85,2.81l-10.46,23.7h-4.73l-10-22.87a8.65,8.65,0,0,1-.85-2.85l-.39,26.51h-6.11l.65-38.67h6.88l12.64,28.63,13-28.63h6.8l.47,38.67Z"/><path class="cls-1" d="M218.14,42.23a14.47,14.47,0,0,0-2.75-.3c-2.45,0-3.14.52-6.27,5.49V63.48h-7V36.15l5.56-.46a23.68,23.68,0,0,1,.81,6.12c2.56-5.2,4-6.12,6.56-6.12a13.6,13.6,0,0,1,3.86.58Z"/><path class="cls-1" d="M240.08,41.81a18.26,18.26,0,0,0-5.23-.8c-4.92,0-7.07,2.88-7.07,9.28,0,5.34,1.85,8,6.33,8a15.46,15.46,0,0,0,6.55-1.57l1.79,4.92a20.22,20.22,0,0,1-9.8,2.25c-7.76,0-11.93-3.63-11.93-13,0-10.31,5.67-15.32,13.5-15.32a18.11,18.11,0,0,1,7.29,1.21Z"/><path class="cls-1" d="M293.28,63.48v-19c0-1.9-.58-3.11-2.71-3.11-1.8,0-4.3,1.28-6.67,3.52V63.48h-7.08V36.15l6.15-.41a16.41,16.41,0,0,1,.69,4.23c3.23-2.95,6.67-4.45,9.68-4.45,5.16,0,7.08,2.49,7.08,7.68V63.48Z"/><path class="cls-1" d="M314.22,63.94c-4.86,0-7.29-2-7.29-7V41.23l.17-5,.07-7.95,6.89-.51v8.46h8.1l-.39,5.09h-7.71V56.61c0,1.48.51,2,2,2a14.9,14.9,0,0,0,5.45-1.15l1.21,4.68a18.22,18.22,0,0,1-8.52,1.79"/><path class="cls-1" d="M327.86,63.48V36.26l7-.4V63.48Zm-.17-38.88h7.13v6.23h-7.13Z"/><path class="cls-1" d="M342.54,22l7-.41V55.91c0,1.91.11,2.37,1.68,2.37a19.53,19.53,0,0,0,2.26-.12l.16,4.92a22.32,22.32,0,0,1-5.72.68c-3.59,0-5.34-1.49-5.34-5.37Z"/><path class="cls-1" d="M380.61,64a27.2,27.2,0,0,1-12.05-2.53l1.86-5.88a28.92,28.92,0,0,0,10.8,2.4c4.45,0,6.8-2,6.8-4.65s-1.24-4.2-7-5.88c-7.64-2.18-11-4.49-11-11.39,0-6.61,4.55-11.77,13.11-11.77a25.32,25.32,0,0,1,11.35,2.37l-1.74,5.43a28.34,28.34,0,0,0-9.15-1.85c-4.45,0-6.31,1.69-6.31,4.83,0,2.75.95,4.19,6.31,5.76,9.6,2.79,11.68,5.67,11.68,11.32,0,6.61-5,11.84-14.61,11.84"/><path class="cls-1" d="M448,63.48v-19c0-1.9-.58-3.11-2.74-3.11-1.78,0-4.28,1.28-6.64,3.52V63.48h-7.07V36.15l6.13-.41a16,16,0,0,1,.69,4.23c3.26-2.95,6.67-4.45,9.69-4.45,5.14,0,7.08,2.49,7.08,7.68V63.48Z"/><path class="cls-1" d="M470.41,63.94c-4.88,0-7.3-2-7.3-7V41.23l-3.47-.16.41-4.75,3.23-.11.82-8.5,6.14-.51v9h8.12L478,41.3h-7.71V56.61c0,1.48.52,2,2,2a15,15,0,0,0,5.45-1.15l1.22,4.68a18.26,18.26,0,0,1-8.53,1.79"/><path class="cls-1" d="M573,42c-.89-.06-1.51-.11-2.22-.11-2.44,0-3.12.52-6.25,5.49v16h-7V36.15l5.57-.46a24.14,24.14,0,0,1,.81,6.12c2.55-5.19,4-6.12,6.54-6.12a13.11,13.11,0,0,1,3.31.41Z"/><polygon class="cls-1" points="628.41 40.37 615.9 58.39 628.69 58.39 628.19 63.48 607.54 63.48 607.09 59.02 619.88 41.23 607.72 41.23 608.3 36.2 628 36.2 628.41 40.37"/><path class="cls-1" d="M549.06,32.14a25.7,25.7,0,0,0-8.78-1.83c-6.4,0-10.28,4.55-10.28,14.08C530,55.08,534.61,58,540,58a20.72,20.72,0,0,0,10.35-3l1.9,5.22a24.42,24.42,0,0,1-13.65,3.69c-10.51,0-16.08-5.78-16.08-18.89,0-12.66,6.41-20.5,17.64-20.5,5,0,7.82.66,10.86,2.07Z"/><path class="cls-1" d="M194.35,56a20.88,20.88,0,0,1-9,2.6c-4.63,0-6.61-2.46-6.61-7.35a42.11,42.11,0,0,1,.24-4.21c.49-4.11,2.6-6.29,5.8-6.29,2.89,0,4.45,2,4.45,6.29h-8v4.21h14.16a25.21,25.21,0,0,0,.16-3.11c0-7.68-2.6-12.54-10-12.54-8.75,0-13.74,6-13.74,15.43,0,9.19,4.65,12.88,12.58,12.88A22.3,22.3,0,0,0,196,60.64Z"/><path class="cls-1" d="M268.42,55.79V44.47c0-5.72-1.79-9.06-8.3-9.06a21.44,21.44,0,0,0-13.55,4.32L249.35,44a16.38,16.38,0,0,1,9.11-3.18c2.08,0,2.89.87,2.89,3.35V56.43a8.2,8.2,0,0,1-5.68,2.66,3.28,3.28,0,0,1-3.54-3.58c0-1.88,1.48-2.76,7.1-3.3V48.35c-11.72,1.16-13.82,3.75-13.82,7.44,0,5.25,3.49,8.15,7.65,8.15a10.81,10.81,0,0,0,8.57-3.58c.64,2.19,2.74,3.4,6.73,3.4.81,0,1.81,0,2.84-.06l1.15-5.13c-3.7-.47-3.93-.75-3.93-2.78"/><path class="cls-1" d="M423.13,55.79V44.47c0-5.72-1.8-9.06-8.29-9.06a21.41,21.41,0,0,0-13.56,4.32L404.05,44a16.4,16.4,0,0,1,9.1-3.18c2.1,0,2.91.87,2.91,3.35V56.43a8.23,8.23,0,0,1-5.69,2.66,3.27,3.27,0,0,1-3.53-3.58c0-1.88,1.48-2.76,7.1-3.3V48.35c-11.72,1.16-13.82,3.75-13.82,7.44,0,5.25,3.48,8.15,7.65,8.15a10.8,10.8,0,0,0,8.57-3.58c.64,2.19,2.73,3.4,6.71,3.4.83,0,1.81,0,2.87-.06l1.15-5.13c-3.72-.47-3.94-.75-3.94-2.78"/><path class="cls-1" d="M504.84,55.79V44.47c0-5.73-1.81-9.06-8.29-9.06A21.45,21.45,0,0,0,483,39.73L485.78,44a16.38,16.38,0,0,1,9.1-3.17c2.08,0,2.89.87,2.89,3.34V56.43a8.18,8.18,0,0,1-5.68,2.66,3.27,3.27,0,0,1-3.54-3.58c0-1.88,1.48-2.76,7.1-3.3V48.35c-11.72,1.16-13.82,3.75-13.82,7.44,0,5.25,3.47,8.15,7.66,8.15a10.84,10.84,0,0,0,8.57-3.58c.63,2.19,2.72,3.4,6.73,3.4.8,0,1.79,0,2.83-.06l1.16-5.13c-3.71-.47-3.94-.75-3.94-2.78"/><path class="cls-1" d="M604.26,58.49c-2.83-.37-3.36-.68-3.45-2.05V36l-7.12.35V54.88c-2.43,2.25-4.63,3.21-6.38,3.21-2.08,0-2.84-1.14-2.84-3.11V36l-7.12.28V56.14c0,5.09,1.79,7.8,7.06,7.8,3,0,6.3-1.33,9.49-4.19,0,.17.06.36.11.6.64,2.2,2.73,3.4,6.73,3.4.8,0,1.79,0,2.83,0Z"/><path class="cls-2" d="M1.26,44.22a43.09,43.09,0,1,1,43.07,43,43,43,0,0,1-43.07-43"/><path class="cls-3" d="M44.33,86.9A42.68,42.68,0,1,1,87.15,44.22,42.78,42.78,0,0,1,44.33,86.9M88.7,44.22A44.35,44.35,0,1,0,44.33,88.44,44.34,44.34,0,0,0,88.7,44.22"/><path class="cls-3" d="M44.33,86.9A42.68,42.68,0,1,1,87.15,44.22,42.78,42.78,0,0,1,44.33,86.9M88.7,44.22A44.35,44.35,0,1,0,44.33,88.44,44.34,44.34,0,0,0,88.7,44.22"/><path class="cls-3" d="M12.9,44.22c0,17.7,14.11,32.1,31.43,32.1s31.45-14.4,31.45-32.1S61.69,12.11,44.33,12.11,12.9,26.53,12.9,44.22m1.2,0c0-17,13.57-30.88,30.23-30.88S74.57,27.2,74.57,44.22,61,75.1,44.33,75.1,14.1,61.26,14.1,44.22"/><polygon class="cls-3" points="9.48 34.76 8.73 36.51 8.71 36.5 7.85 34.81 5.94 34.64 5.94 34.62 7.3 33.34 6.86 31.48 6.88 31.48 8.55 32.41 10.23 31.4 10.23 31.42 9.9 33.3 11.33 34.49 11.32 34.5 9.48 34.76"/><polygon class="cls-3" points="9.48 34.76 8.73 36.51 8.71 36.5 7.85 34.81 5.94 34.64 5.94 34.62 7.3 33.34 6.86 31.48 6.88 31.48 8.55 32.41 10.23 31.4 10.23 31.42 9.9 33.3 11.33 34.49 11.32 34.5 9.48 34.76"/><polygon class="cls-3" points="8.94 51.36 9.05 53.28 9.03 53.28 7.5 52.12 5.72 52.84 5.7 52.84 6.35 51.05 5.14 49.62 5.14 49.6 7.06 49.66 8.1 48.05 8.11 48.05 8.67 49.85 10.46 50.32 10.46 50.32 8.94 51.36"/><polygon class="cls-3" points="8.94 51.36 9.05 53.28 9.03 53.28 7.5 52.12 5.72 52.84 5.7 52.84 6.35 51.05 5.14 49.62 5.14 49.6 7.06 49.66 8.1 48.05 8.11 48.05 8.67 49.85 10.46 50.32 10.46 50.32 8.94 51.36"/><polygon class="cls-3" points="15.91 66.48 16.91 68.13 16.9 68.13 14.97 67.81 13.75 69.24 13.72 69.24 13.46 67.38 11.75 66.64 11.75 66.63 13.46 65.82 13.68 63.9 13.69 63.89 14.98 65.26 16.83 64.85 16.84 64.86 15.91 66.48"/><polygon class="cls-3" points="15.91 66.48 16.91 68.13 16.9 68.13 14.97 67.81 13.75 69.24 13.72 69.24 13.46 67.38 11.75 66.64 11.75 66.63 13.46 65.82 13.68 63.9 13.69 63.89 14.98 65.26 16.83 64.85 16.84 64.86 15.91 66.48"/><polygon class="cls-3" points="29 76.85 30.6 77.89 30.59 77.89 28.76 78.45 28.28 80.29 28.25 80.29 27.21 78.74 25.33 78.85 25.32 78.83 26.52 77.35 25.82 75.52 25.82 75.52 27.63 76.17 29.07 75 29.07 75 29 76.85"/><polygon class="cls-3" points="29 76.85 30.6 77.89 30.59 77.89 28.76 78.45 28.28 80.29 28.25 80.29 27.21 78.74 25.33 78.85 25.32 78.83 26.52 77.35 25.82 75.52 25.82 75.52 27.63 76.17 29.07 75 29.07 75 29 76.85"/><polygon class="cls-3" points="45.34 80.19 47.24 80.44 47.24 80.44 45.85 81.74 46.25 83.63 46.25 83.65 44.6 82.7 42.97 83.67 42.95 83.65 43.34 81.77 41.91 80.48 41.91 80.46 43.8 80.21 44.57 78.53 44.58 78.53 45.34 80.19"/><polygon class="cls-3" points="45.34 80.19 47.24 80.44 47.24 80.44 45.85 81.74 46.25 83.63 46.25 83.65 44.6 82.7 42.97 83.67 42.95 83.65 43.34 81.77 41.91 80.48 41.91 80.46 43.8 80.21 44.57 78.53 44.58 78.53 45.34 80.19"/><polygon class="cls-3" points="61.45 75.96 63.27 75.27 63.28 75.28 62.61 77.1 63.83 78.57 63.83 78.59 61.92 78.51 60.91 80.08 60.89 80.07 60.39 78.23 58.53 77.71 58.53 77.7 60.1 76.66 60.01 74.77 60.03 74.77 61.45 75.96"/><polygon class="cls-3" points="61.45 75.96 63.27 75.27 63.28 75.28 62.61 77.1 63.83 78.57 63.83 78.59 61.92 78.51 60.91 80.08 60.89 80.07 60.39 78.23 58.53 77.71 58.53 77.7 60.1 76.66 60.01 74.77 60.03 74.77 61.45 75.96"/><polygon class="cls-3" points="73.97 64.86 75.25 63.47 75.26 63.48 75.52 65.38 77.23 66.17 77.23 66.19 75.54 66.95 75.3 68.81 75.28 68.81 74.03 67.39 72.11 67.75 72.09 67.75 73.06 66.09 72.13 64.48 72.14 64.47 73.97 64.86"/><polygon class="cls-3" points="73.97 64.86 75.25 63.47 75.26 63.48 75.52 65.38 77.23 66.17 77.23 66.19 75.54 66.95 75.3 68.81 75.28 68.81 74.03 67.39 72.11 67.75 72.09 67.75 73.06 66.09 72.13 64.48 72.14 64.47 73.97 64.86"/><polygon class="cls-3" points="80.08 49.4 80.61 47.57 80.63 47.57 81.69 49.17 83.61 49.09 83.62 49.12 82.41 50.56 83.08 52.33 83.07 52.34 81.28 51.63 79.77 52.82 79.75 52.82 79.83 50.9 78.29 49.88 78.29 49.87 80.08 49.4"/><polygon class="cls-3" points="78.63 32.87 78.28 30.96 78.29 30.95 79.95 31.94 81.64 30.99 81.65 31 81.25 32.85 82.62 34.11 82.6 34.13 80.7 34.33 79.86 36.05 79.85 36.05 79.08 34.34 77.23 34.06 77.23 34.06 78.63 32.87"/><polygon class="cls-3" points="78.63 32.87 78.28 30.96 78.29 30.95 79.95 31.94 81.64 30.99 81.65 31 81.25 32.85 82.62 34.11 82.6 34.13 80.7 34.33 79.86 36.05 79.85 36.05 79.08 34.34 77.23 34.06 77.23 34.06 78.63 32.87"/><path class="cls-3" d="M19.61,19.65l-1.29-1.24a1.87,1.87,0,0,1,1.13-.6.85.85,0,0,1,.61.24.83.83,0,0,1,0,1.16,5.25,5.25,0,0,1-.48.44m-2.93-2.84c.52-.5,1-.6,1.42-.23a.88.88,0,0,1,.29.6.77.77,0,0,1-.23.5s-.17.18-.29.28Zm2.32.27a1.17,1.17,0,0,0-.34-1.27c-.6-.59-1.46-.46-2.25.34a5.5,5.5,0,0,0-1.06,1.34.32.32,0,0,0,.2.43l0,0,.07-.06.42-.32,2.84,2.75-.18.33a.41.41,0,0,0-.05.34.37.37,0,0,0,.19.2l.09,0,.07-.06c.34-.38.38-.42.77-.83l0,0c.18-.16.26-.25.36-.34a4.56,4.56,0,0,0,.35-.33,1.6,1.6,0,0,0,.07-2.42A1.41,1.41,0,0,0,19,17.08"/><path class="cls-3" d="M19.61,19.65l-1.29-1.24a1.87,1.87,0,0,1,1.13-.6.85.85,0,0,1,.61.24.83.83,0,0,1,0,1.16,5.25,5.25,0,0,1-.48.44m-2.93-2.84c.52-.5,1-.6,1.42-.23a.88.88,0,0,1,.29.6.77.77,0,0,1-.23.5s-.17.18-.29.28Zm2.32.27a1.17,1.17,0,0,0-.34-1.27c-.6-.59-1.46-.46-2.25.34a5.5,5.5,0,0,0-1.06,1.34.32.32,0,0,0,.2.43l0,0,.07-.06.42-.32,2.84,2.75-.18.33a.41.41,0,0,0-.05.34.37.37,0,0,0,.19.2l.09,0,.07-.06c.34-.38.38-.42.77-.83l0,0c.18-.16.26-.25.36-.34a4.56,4.56,0,0,0,.35-.33,1.6,1.6,0,0,0,.07-2.42A1.41,1.41,0,0,0,19,17.08"/><path class="cls-3" d="M28.36,12.59a1.44,1.44,0,0,1-.69.83c-.84.47-1.66.07-2.33-1.1s-.44-1.91.35-2.36a1.42,1.42,0,0,1,1.08-.17A2.35,2.35,0,0,1,28,11a2.18,2.18,0,0,1,.33,1.6M25.54,9.16a2.74,2.74,0,0,0-.89,4,2.67,2.67,0,0,0,1.53,1.34,2.08,2.08,0,0,0,1.62-.24c1.5-.84,1.87-2.39.93-4-.77-1.38-1.9-1.76-3.19-1"/><path class="cls-3" d="M28.36,12.59a1.44,1.44,0,0,1-.69.83c-.84.47-1.66.07-2.33-1.1s-.44-1.91.35-2.36a1.42,1.42,0,0,1,1.08-.17A2.35,2.35,0,0,1,28,11a2.18,2.18,0,0,1,.33,1.6M25.54,9.16a2.74,2.74,0,0,0-.89,4,2.67,2.67,0,0,0,1.53,1.34,2.08,2.08,0,0,0,1.62-.24c1.5-.84,1.87-2.39.93-4-.77-1.38-1.9-1.76-3.19-1"/><path class="cls-3" d="M38.7,8.79V8.71l-.09,0a.47.47,0,0,0-.37,0A.58.58,0,0,0,38,9.1s0,.39-.08.58L36.28,10l-.84-3.81.33-.09a.44.44,0,0,0,.34-.6l0-.11-.12,0-1.64.36A.54.54,0,0,0,33.9,6a.39.39,0,0,0,0,.34l.06.09H34l.46-.06.88,3.9-.3.17a.43.43,0,0,0-.22.24.51.51,0,0,0,.08.29L35,11l.09,0,3.55-.79.1,0v-.11Z"/><path class="cls-3" d="M38.7,8.79V8.71l-.09,0a.47.47,0,0,0-.37,0A.58.58,0,0,0,38,9.1s0,.39-.08.58L36.28,10l-.84-3.81.33-.09a.44.44,0,0,0,.34-.6l0-.11-.12,0-1.64.36A.54.54,0,0,0,33.9,6a.39.39,0,0,0,0,.34l.06.09H34l.46-.06.88,3.9-.3.17a.43.43,0,0,0-.22.24.51.51,0,0,0,.08.29L35,11l.09,0,3.55-.79.1,0v-.11Z"/><path class="cls-3" d="M46,5.13A.45.45,0,0,0,46.34,5a.54.54,0,0,0,.09-.36v-.1H46.3l-1.61,0a.52.52,0,0,0-.45.16.37.37,0,0,0-.07.33v.09h.1l.48.07-.12,4-.37.07a.5.5,0,0,0-.33.19.41.41,0,0,0,0,.3l0,.09h.1c.21,0,.56,0,.89,0H45c.33,0,.61,0,.81,0a.54.54,0,0,0,.37-.11.4.4,0,0,0,.14-.31V9.3l-.09,0-.63-.13.11-4Z"/><path class="cls-3" d="M46,5.13A.45.45,0,0,0,46.34,5a.54.54,0,0,0,.09-.36v-.1H46.3l-1.61,0a.52.52,0,0,0-.45.16.37.37,0,0,0-.07.33v.09h.1l.48.07-.12,4-.37.07a.5.5,0,0,0-.33.19.41.41,0,0,0,0,.3l0,.09h.1c.21,0,.56,0,.89,0H45c.33,0,.61,0,.81,0a.54.54,0,0,0,.37-.11.4.4,0,0,0,.14-.31V9.3l-.09,0-.63-.13.11-4Z"/><path class="cls-3" d="M55.83,6.27a.59.59,0,0,0-.46.05.56.56,0,0,0-.14.29v.08l.09,0,.42.22L53.91,9.69l-.2-3.33.27.06a.52.52,0,0,0,.63-.37l0-.12-.13,0-1.61-.46a.54.54,0,0,0-.46.05.37.37,0,0,0-.18.31v.09l.07,0,.37.16.25,5v.11h.11a1,1,0,0,0,1.07-.5l2.35-3.42a.75.75,0,0,0,.57,0,.6.6,0,0,0,.27-.44l0-.11-.12,0Z"/><path class="cls-3" d="M55.83,6.27a.59.59,0,0,0-.46.05.56.56,0,0,0-.14.29v.08l.09,0,.42.22L53.91,9.69l-.2-3.33.27.06a.52.52,0,0,0,.63-.37l0-.12-.13,0-1.61-.46a.54.54,0,0,0-.46.05.37.37,0,0,0-.18.31v.09l.07,0,.37.16.25,5v.11h.11a1,1,0,0,0,1.07-.5l2.35-3.42a.75.75,0,0,0,.57,0,.6.6,0,0,0,.27-.44l0-.11-.12,0Z"/><path class="cls-3" d="M63.43,9.65a.51.51,0,0,0-.47-.1.4.4,0,0,0-.22.26l0,.08.06.06.41.29-2.07,3.42-.35-.11a.41.41,0,0,0-.38,0,.31.31,0,0,0-.16.25l0,.09.08,0c.21.11.54.31.82.48a7.11,7.11,0,0,1,.71.44.49.49,0,0,0,.37.09.4.4,0,0,0,.28-.21l0-.08-.08-.09-.48-.41L64,10.74l.26.1a.51.51,0,0,0,.37.07.5.5,0,0,0,.24-.28l0-.1-.1-.06Z"/><path class="cls-3" d="M63.43,9.65a.51.51,0,0,0-.47-.1.4.4,0,0,0-.22.26l0,.08.06.06.41.29-2.07,3.42-.35-.11a.41.41,0,0,0-.38,0,.31.31,0,0,0-.16.25l0,.09.08,0c.21.11.54.31.82.48a7.11,7.11,0,0,1,.71.44.49.49,0,0,0,.37.09.4.4,0,0,0,.28-.21l0-.08-.08-.09-.48-.41L64,10.74l.26.1a.51.51,0,0,0,.37.07.5.5,0,0,0,.24-.28l0-.1-.1-.06Z"/><path class="cls-3" d="M69.44,17.64,71,16.91l-.79,1.49Zm2.71-1.15,0-.06-.22-.28a.59.59,0,0,0-.74-.12S67.5,17.69,67,17.91l-.3-.18a.42.42,0,0,0-.27,0,.43.43,0,0,0-.24.2l0,.09.08.06c.14.13.33.34.51.51l.56.62a.44.44,0,0,0,.6.07l.11-.07-.08-.1-.36-.54L68.81,18l1,1.09-.61,1.2-.4-.25a.43.43,0,0,0-.28,0,.5.5,0,0,0-.22.21l0,.07.05.07.63.61.63.69a.42.42,0,0,0,.61.07l.1-.07-.06-.09L70,21l2.15-4.47Z"/><path class="cls-3" d="M69.44,17.64,71,16.91l-.79,1.49Zm2.71-1.15,0-.06-.22-.28a.59.59,0,0,0-.74-.12S67.5,17.69,67,17.91l-.3-.18a.42.42,0,0,0-.27,0,.43.43,0,0,0-.24.2l0,.09.08.06c.14.13.33.34.51.51l.56.62a.44.44,0,0,0,.6.07l.11-.07-.08-.1-.36-.54L68.81,18l1,1.09-.61,1.2-.4-.25a.43.43,0,0,0-.28,0,.5.5,0,0,0-.22.21l0,.07.05.07.63.61.63.69a.42.42,0,0,0,.61.07l.1-.07-.06-.09L70,21l2.15-4.47Z"/><path class="cls-3" d="M49.81,67.27l-1.09,0c-.42,0-1,0-1.2,0,0-.13,0-.28.29-.34l.65-.15V63.73c-.17,0-.5,0-.71,0s-.31-.08-.28-.34c.32,0,1.52-.34,1.76-.43v3.8l1,.18a.34.34,0,0,1-.39.31"/><path class="cls-3" d="M49.81,67.27l-1.09,0c-.42,0-1,0-1.2,0,0-.13,0-.28.29-.34l.65-.15V63.73c-.17,0-.5,0-.71,0s-.31-.08-.28-.34c.32,0,1.52-.34,1.76-.43v3.8l1,.18a.34.34,0,0,1-.39.31"/><path class="cls-3" d="M53.79,65c0-.8-.26-1.55-.8-1.55-.34,0-.54.37-.54.76,0,.65.24,1,.74,1a1.76,1.76,0,0,0,.6-.1Zm-1.12,2.35c-.57,0-1.05-.27-1.05-.73a.33.33,0,0,1,.3-.32c.13.36.35.52.85.52s.92-.38,1-1.36a1.55,1.55,0,0,1-.9.21,1.16,1.16,0,0,1-1.21-1.27A1.48,1.48,0,0,1,53.12,63c.9,0,1.47.67,1.47,2,0,1.53-.59,2.4-1.92,2.4"/><path class="cls-3" d="M53.79,65c0-.8-.26-1.55-.8-1.55-.34,0-.54.37-.54.76,0,.65.24,1,.74,1a1.76,1.76,0,0,0,.6-.1Zm-1.12,2.35c-.57,0-1.05-.27-1.05-.73a.33.33,0,0,1,.3-.32c.13.36.35.52.85.52s.92-.38,1-1.36a1.55,1.55,0,0,1-.9.21,1.16,1.16,0,0,1-1.21-1.27A1.48,1.48,0,0,1,53.12,63c.9,0,1.47.67,1.47,2,0,1.53-.59,2.4-1.92,2.4"/><path class="cls-3" d="M57.43,63.55c-.4,0-.68.48-.68,1.57,0,1.25.37,1.65.83,1.65s.68-.43.68-1.57-.35-1.65-.83-1.65m-.1,3.8c-.75,0-1.36-.72-1.36-2.15C56,64,56.67,63,57.6,63s1.47.72,1.47,2.07-.76,2.3-1.74,2.3"/><path class="cls-3" d="M57.43,63.55c-.4,0-.68.48-.68,1.57,0,1.25.37,1.65.83,1.65s.68-.43.68-1.57-.35-1.65-.83-1.65m-.1,3.8c-.75,0-1.36-.72-1.36-2.15C56,64,56.67,63,57.6,63s1.47.72,1.47,2.07-.76,2.3-1.74,2.3"/><path class="cls-3" d="M62.51,63.8a4.33,4.33,0,0,1-1-.13l0,.91c1.19-.08,1.84.47,1.84,1.27a1.56,1.56,0,0,1-1.75,1.5c-.64,0-1.09-.31-1.09-.87a.34.34,0,0,1,.32-.32.92.92,0,0,0,.87.7.74.74,0,0,0,.8-.82c0-.76-.66-1.08-1.65-.91l.13-2a16.74,16.74,0,0,0,2.29,0c.15.37-.06.74-.69.74"/><path class="cls-3" d="M62.51,63.8a4.33,4.33,0,0,1-1-.13l0,.91c1.19-.08,1.84.47,1.84,1.27a1.56,1.56,0,0,1-1.75,1.5c-.64,0-1.09-.31-1.09-.87a.34.34,0,0,1,.32-.32.92.92,0,0,0,.87.7.74.74,0,0,0,.8-.82c0-.76-.66-1.08-1.65-.91l.13-2a16.74,16.74,0,0,0,2.29,0c.15.37-.06.74-.69.74"/><path class="cls-3" d="M38,52.62a12.52,12.52,0,0,0,.93,6.19c.27.62-.34.42-.34.42-1.51-.42-2.56-2-3.12-3.65A12,12,0,0,1,35,51.77a41.47,41.47,0,0,1,.87-6.31,114.45,114.45,0,0,1,4-12.26c.12-.3,0-.38-.15-.32a.87.87,0,0,0-.26.26c-5.58,8.21-9.3,14.33-9.3,14.33-.47.68-.67,0-.67,0,.07-3,.48-14.2.48-14.2,0-.29,0-.37-.09-.38s-.27.28-.27.28c-.15.29-3.4,9.26-5.6,15a52.57,52.57,0,0,1-2.48,5.73,3.12,3.12,0,0,1-1.94,1.34,4.68,4.68,0,0,1-2.11.22c-.56-.11-.19-.55-.19-.55,1.89-1.26,4.47-5.46,6.55-10a147.79,147.79,0,0,0,5.62-14.62,2,2,0,0,0,.11-1.27.57.57,0,0,0-.52-.3c-3.91,0-6.16,4.5-6.16,4.5a6.45,6.45,0,0,0-.33,5.7c.16.46-.28.32-.28.32-3.39-1.3-2.11-5.37-2.11-5.37s1.52-7.06,13.27-6.19a.25.25,0,0,1,.2.29S33,37.93,33,40.2c0,0,.11.65.42.1,0,0,5.78-8.63,8.52-12.4a.46.46,0,0,1,.44-.26s2.13-.06,4.3,0c0,0,.32,0,.3.24s0,.19-.25.33c0,0-.89.27-2,1.95a14.34,14.34,0,0,0-1.36,2.78,130.6,130.6,0,0,0-4.52,13.85A33.32,33.32,0,0,0,38,52.62"/><path class="cls-3" d="M38,52.62a12.52,12.52,0,0,0,.93,6.19c.27.62-.34.42-.34.42-1.51-.42-2.56-2-3.12-3.65A12,12,0,0,1,35,51.77a41.47,41.47,0,0,1,.87-6.31,114.45,114.45,0,0,1,4-12.26c.12-.3,0-.38-.15-.32a.87.87,0,0,0-.26.26c-5.58,8.21-9.3,14.33-9.3,14.33-.47.68-.67,0-.67,0,.07-3,.48-14.2.48-14.2,0-.29,0-.37-.09-.38s-.27.28-.27.28c-.15.29-3.4,9.26-5.6,15a52.57,52.57,0,0,1-2.48,5.73,3.12,3.12,0,0,1-1.94,1.34,4.68,4.68,0,0,1-2.11.22c-.56-.11-.19-.55-.19-.55,1.89-1.26,4.47-5.46,6.55-10a147.79,147.79,0,0,0,5.62-14.62,2,2,0,0,0,.11-1.27.57.57,0,0,0-.52-.3c-3.91,0-6.16,4.5-6.16,4.5a6.45,6.45,0,0,0-.33,5.7c.16.46-.28.32-.28.32-3.39-1.3-2.11-5.37-2.11-5.37s1.52-7.06,13.27-6.19a.25.25,0,0,1,.2.29S33,37.93,33,40.2c0,0,.11.65.42.1,0,0,5.78-8.63,8.52-12.4a.46.46,0,0,1,.44-.26s2.13-.06,4.3,0c0,0,.32,0,.3.24s0,.19-.25.33c0,0-.89.27-2,1.95a14.34,14.34,0,0,0-1.36,2.78,130.6,130.6,0,0,0-4.52,13.85A33.32,33.32,0,0,0,38,52.62"/><path class="cls-3" d="M30.56,55.8a7.65,7.65,0,0,1,7.94-7.12,6.85,6.85,0,0,1,3.18.69,3.92,3.92,0,0,1,2.08,2.33,4.36,4.36,0,0,1,0,2.45,3.36,3.36,0,0,1-2.21,2.17c-.68.24-.22-.38-.22-.38a6.24,6.24,0,0,0,.6-2.52c0-3.12-2.4-3.64-2.4-3.64a5.84,5.84,0,0,0-3.31.18c-3.16,1.12-3.39,5-3.39,5a6.32,6.32,0,0,0,3.73,7c5.11,1.92,9.19-1.9,9.19-1.9a7.33,7.33,0,0,0,2.11-7.45c-.47-1.8-3-5.78-3-5.78a14.24,14.24,0,0,1-2.22-4.35,7.33,7.33,0,0,1,.37-4.72c.8-1.81,2.64-4,6.58-4.62,0,0,3.22-.52,5.3.44a.32.32,0,0,1,.11.37,34.55,34.55,0,0,0-1.61,3.65.61.61,0,0,1-.26.29c-.17.06-.5,0-.47-.35,0,0,.42-3.82-2.93-3.37a4.68,4.68,0,0,0-3.78,2.79,5.74,5.74,0,0,0-.12,4.15,20,20,0,0,0,2.35,4.25s3.07,4.38,3.25,6.86c0,0,1.11,6.49-6.27,10.06,0,0-5.87,2.86-11.13-.06a6.47,6.47,0,0,1-3.4-6.38"/><path class="cls-3" d="M30.56,55.8a7.65,7.65,0,0,1,7.94-7.12,6.85,6.85,0,0,1,3.18.69,3.92,3.92,0,0,1,2.08,2.33,4.36,4.36,0,0,1,0,2.45,3.36,3.36,0,0,1-2.21,2.17c-.68.24-.22-.38-.22-.38a6.24,6.24,0,0,0,.6-2.52c0-3.12-2.4-3.64-2.4-3.64a5.84,5.84,0,0,0-3.31.18c-3.16,1.12-3.39,5-3.39,5a6.32,6.32,0,0,0,3.73,7c5.11,1.92,9.19-1.9,9.19-1.9a7.33,7.33,0,0,0,2.11-7.45c-.47-1.8-3-5.78-3-5.78a14.24,14.24,0,0,1-2.22-4.35,7.33,7.33,0,0,1,.37-4.72c.8-1.81,2.64-4,6.58-4.62,0,0,3.22-.52,5.3.44a.32.32,0,0,1,.11.37,34.55,34.55,0,0,0-1.61,3.65.61.61,0,0,1-.26.29c-.17.06-.5,0-.47-.35,0,0,.42-3.82-2.93-3.37a4.68,4.68,0,0,0-3.78,2.79,5.74,5.74,0,0,0-.12,4.15,20,20,0,0,0,2.35,4.25s3.07,4.38,3.25,6.86c0,0,1.11,6.49-6.27,10.06,0,0-5.87,2.86-11.13-.06a6.47,6.47,0,0,1-3.4-6.38"/><path class="cls-3" d="M58,55.24c-4,.08-5.47-2.52-5.86-5.51-.56-4.31,1.57-9.93,1.57-9.93S57.22,26.89,66,27.49a10.21,10.21,0,0,1,3.53,1,.43.43,0,0,1,.16.45s-1.89,4.24-2,5.9c0,0-.09.28-.46.16a2.63,2.63,0,0,1-1.57-3.48c.17-.48.34-.89.56-1.5a2.67,2.67,0,0,0,.28-1.1.35.35,0,0,0-.15-.27,2.8,2.8,0,0,0-1.09-.14,3.92,3.92,0,0,0-1.92.69c-3.59,2.49-6.48,12.38-6.48,12.38s-4.05,12.27,1,12.66c0,0,3.21.75,5.67-4.36a22.48,22.48,0,0,0,2.09-6.68s0-.35.23-.39.3.09.42.47a8.73,8.73,0,0,1-.8,7.57A8.25,8.25,0,0,1,58,55.24"/><path class="cls-3" d="M58,55.24c-4,.08-5.47-2.52-5.86-5.51-.56-4.31,1.57-9.93,1.57-9.93S57.22,26.89,66,27.49a10.21,10.21,0,0,1,3.53,1,.43.43,0,0,1,.16.45s-1.89,4.24-2,5.9c0,0-.09.28-.46.16a2.63,2.63,0,0,1-1.57-3.48c.17-.48.34-.89.56-1.5a2.67,2.67,0,0,0,.28-1.1.35.35,0,0,0-.15-.27,2.8,2.8,0,0,0-1.09-.14,3.92,3.92,0,0,0-1.92.69c-3.59,2.49-6.48,12.38-6.48,12.38s-4.05,12.27,1,12.66c0,0,3.21.75,5.67-4.36a22.48,22.48,0,0,0,2.09-6.68s0-.35.23-.39.3.09.42.47a8.73,8.73,0,0,1-.8,7.57A8.25,8.25,0,0,1,58,55.24"/><path class="cls-1" d="M159.9,63.9l-.16-27.31a12.09,12.09,0,0,1-.85,2.81L148.43,63.12h-4.74l-10-22.89a8.62,8.62,0,0,1-.84-2.85l-.4,26.52h-6.12L127,25.21h6.88l12.65,28.65,13.05-28.65h6.81l.46,38.69Z"/><path class="cls-1" d="M218.29,42.64a14.47,14.47,0,0,0-2.75-.3c-2.45,0-3.14.52-6.28,5.5V63.9h-7V36.56l5.55-.46c.42.86.7,3.58.82,6.12,2.55-5.2,4-6.12,6.56-6.12a13.6,13.6,0,0,1,3.86.58Z"/><path class="cls-1" d="M240.25,42.22a18.32,18.32,0,0,0-5.24-.8c-4.92,0-7.08,2.88-7.08,9.29,0,5.34,1.86,8,6.34,8a15.41,15.41,0,0,0,6.55-1.56l1.8,4.92a20.38,20.38,0,0,1-9.81,2.25c-7.77,0-11.94-3.64-11.94-13.05,0-10.31,5.68-15.34,13.51-15.34a18.19,18.19,0,0,1,7.3,1.22Z"/><path class="cls-1" d="M293.48,63.9v-19c0-1.9-.57-3.12-2.71-3.12-1.8,0-4.3,1.28-6.68,3.52V63.9H277V36.56l6.15-.41a16.41,16.41,0,0,1,.69,4.23c3.23-3,6.67-4.45,9.69-4.45,5.16,0,7.07,2.49,7.07,7.68V63.9Z"/><path class="cls-1" d="M314.44,64.37c-4.87,0-7.3-2-7.3-7V41.64l.17-5,.07-7.94,6.9-.51v8.45h8.11l-.4,5.1h-7.71V57c0,1.49.51,2,2,2a15,15,0,0,0,5.46-1.15l1.2,4.68a18.19,18.19,0,0,1-8.52,1.79"/><path class="cls-1" d="M328.08,63.9V36.67l7-.4V63.9ZM327.92,25h7.13v6.24h-7.13Z"/><path class="cls-1" d="M342.78,22.39l7-.41V56.34c0,1.9.11,2.36,1.68,2.36a21.55,21.55,0,0,0,2.27-.11l.16,4.91a22.33,22.33,0,0,1-5.72.69c-3.6,0-5.35-1.5-5.35-5.38Z"/><path class="cls-1" d="M380.87,64.39a27.2,27.2,0,0,1-12.05-2.53L370.68,56a28.72,28.72,0,0,0,10.8,2.4c4.46,0,6.81-1.95,6.81-4.65s-1.24-4.2-7-5.88c-7.64-2.19-11-4.49-11-11.41,0-6.61,4.55-11.77,13.12-11.77A25.37,25.37,0,0,1,394.71,27L393,32.47a28.07,28.07,0,0,0-9.15-1.85c-4.46,0-6.31,1.69-6.31,4.82,0,2.76.94,4.2,6.31,5.77,9.61,2.8,11.68,5.68,11.68,11.33,0,6.61-5,11.85-14.62,11.85"/><path class="cls-1" d="M448.3,63.9v-19c0-1.9-.58-3.12-2.74-3.12-1.78,0-4.28,1.28-6.65,3.52V63.9h-7.07V36.56l6.13-.41a15.58,15.58,0,0,1,.69,4.23c3.26-3,6.68-4.45,9.7-4.45,5.15,0,7.08,2.49,7.08,7.68V63.9Z"/><path class="cls-1" d="M470.74,64.37c-4.88,0-7.31-2-7.31-7V41.64L460,41.48l.41-4.75,3.23-.12.82-8.5,6.15-.51v9h8.12l-.41,5.1h-7.71V57c0,1.49.51,2,2,2a14.86,14.86,0,0,0,5.46-1.16l1.21,4.69a18.26,18.26,0,0,1-8.53,1.79"/><path class="cls-1" d="M573.42,42.46c-.9-.07-1.51-.12-2.22-.12-2.45,0-3.13.52-6.26,5.49V63.9h-7V36.56l5.57-.47a24.31,24.31,0,0,1,.81,6.13c2.55-5.19,4-6.13,6.55-6.13a12.5,12.5,0,0,1,3.3.42Z"/><polygon class="cls-1" points="628.85 40.78 616.33 58.81 629.13 58.81 628.63 63.9 607.97 63.9 607.51 59.45 620.32 41.64 608.14 41.64 608.73 36.61 628.44 36.61 628.85 40.78"/><path class="cls-1" d="M549.44,32.55a25.76,25.76,0,0,0-8.78-1.83c-6.41,0-10.29,4.55-10.29,14.08,0,10.7,4.62,13.57,10,13.57a20.75,20.75,0,0,0,10.35-3l1.91,5.22A24.44,24.44,0,0,1,539,64.31c-10.51,0-16.08-5.79-16.08-18.9,0-12.67,6.41-20.52,17.65-20.52,5,0,7.82.66,10.87,2.07Z"/><path class="cls-1" d="M194.49,56.39A20.83,20.83,0,0,1,185.43,59c-4.63,0-6.62-2.47-6.62-7.36,0-1.39.12-3.18.24-4.22.5-4.1,2.61-6.29,5.81-6.29,2.89,0,4.45,2,4.45,6.29h-8v4.22h14.17a25.29,25.29,0,0,0,.16-3.11c0-7.69-2.6-12.55-10-12.55-8.76,0-13.75,6-13.75,15.44,0,9.19,4.65,12.89,12.59,12.89a22.33,22.33,0,0,0,11.72-3.24Z"/><path class="cls-1" d="M268.61,56.21V44.88c0-5.72-1.8-9.06-8.31-9.06a21.47,21.47,0,0,0-13.56,4.32l2.79,4.28a16.46,16.46,0,0,1,9.11-3.18c2.08,0,2.89.87,2.89,3.35V56.85a8.21,8.21,0,0,1-5.68,2.67,3.28,3.28,0,0,1-3.54-3.58c0-1.89,1.48-2.77,7.1-3.31V48.77c-11.73,1.16-13.83,3.75-13.83,7.44,0,5.26,3.49,8.16,7.65,8.16a10.8,10.8,0,0,0,8.58-3.59c.64,2.2,2.75,3.41,6.73,3.41.81,0,1.82,0,2.85-.06L272.54,59c-3.7-.48-3.93-.76-3.93-2.79"/><path class="cls-1" d="M423.43,56.21V44.88c0-5.72-1.81-9.06-8.31-9.06a21.41,21.41,0,0,0-13.56,4.32l2.77,4.28a16.48,16.48,0,0,1,9.11-3.18c2.1,0,2.91.87,2.91,3.35V56.85a8.27,8.27,0,0,1-5.69,2.67,3.28,3.28,0,0,1-3.54-3.58c0-1.89,1.49-2.77,7.11-3.31V48.77c-11.73,1.16-13.83,3.75-13.83,7.44,0,5.26,3.48,8.16,7.66,8.16a10.79,10.79,0,0,0,8.57-3.59c.64,2.2,2.73,3.41,6.72,3.41.82,0,1.8,0,2.86-.06L427.36,59c-3.71-.48-3.93-.76-3.93-2.79"/><path class="cls-1" d="M505.19,56.21V44.88c0-5.72-1.81-9.07-8.29-9.07a21.51,21.51,0,0,0-13.58,4.33l2.8,4.28a16.43,16.43,0,0,1,9.11-3.18c2.07,0,2.88.87,2.88,3.35V56.85a8.19,8.19,0,0,1-5.68,2.67,3.27,3.27,0,0,1-3.54-3.58c0-1.89,1.48-2.77,7.11-3.31V48.77c-11.73,1.16-13.84,3.75-13.84,7.44,0,5.25,3.48,8.16,7.67,8.16a10.84,10.84,0,0,0,8.58-3.59c.63,2.2,2.72,3.41,6.73,3.41.8,0,1.79,0,2.84-.06L509.13,59c-3.7-.48-3.94-.76-3.94-2.79"/><path class="cls-1" d="M604.68,58.92c-2.83-.38-3.36-.68-3.45-2.06V36.38l-7.13.36V55.3c-2.43,2.25-4.63,3.21-6.38,3.21-2.09,0-2.85-1.14-2.85-3.11v-19l-7.12.29V56.56c0,5.09,1.8,7.81,7.06,7.81,3,0,6.31-1.33,9.5-4.2,0,.18.07.36.11.6.65,2.21,2.74,3.41,6.74,3.41.8,0,1.79,0,2.83-.05Z"/></svg>