<svg width="203" height="145" viewBox="0 0 203 145" fill="none" xmlns="http://www.w3.org/2000/svg">
<path fill-rule="evenodd" clip-rule="evenodd" d="M49.2759 54.5862C49.2759 51.2725 51.9622 48.5862 55.2759 48.5862H194.31C197.624 48.5862 200.31 51.2725 200.31 54.5862V136.379C200.31 139.693 197.624 142.379 194.31 142.379H55.2759C51.9622 142.379 49.2759 139.693 49.2759 136.379V54.5862Z" fill="#A8D9BD" stroke="#296140" stroke-width="4" stroke-linecap="round" stroke-linejoin="round"/>
<path fill-rule="evenodd" clip-rule="evenodd" d="M68.5862 76.0345H92.5862V92.0345H68.5862V76.0345Z" fill="white" stroke="#296140" stroke-width="4" stroke-linecap="round" stroke-linejoin="round"/>
<path d="M64.4483 112.035H182.379" stroke="#296140" stroke-width="4" stroke-linecap="round" stroke-linejoin="round"/>
<path d="M64.4483 125.828H101.69" stroke="#296140" stroke-width="4" stroke-linecap="round" stroke-linejoin="round"/>
<path d="M109.276 125.828H115.483" stroke="#296140" stroke-width="4" stroke-linecap="round" stroke-linejoin="round"/>
<circle cx="169.276" cy="82.3793" r="12.4138" stroke="#296140" stroke-width="4" stroke-linecap="round" stroke-linejoin="round"/>
<path d="M158.939 75.527C156.716 72.1753 152.909 69.9655 148.586 69.9655C141.73 69.9655 136.172 75.5234 136.172 82.3793C136.172 89.2353 141.73 94.7931 148.586 94.7931C152.75 94.7931 156.434 92.7435 158.686 89.5983" stroke="#296140" stroke-width="4" stroke-linecap="round" stroke-linejoin="round"/>
<path d="M161 48.5862L142.605 6.27801C141.323 3.32817 137.942 1.91449 134.941 3.07315L6.68874 52.5965C3.56197 53.8038 2.0307 57.3387 3.28863 60.4455L33.2715 134.496C34.506 137.545 37.9652 139.032 41.0268 137.829L49.5 134.5" stroke="#296140" stroke-width="4" stroke-linecap="round" stroke-linejoin="round"/>
<path d="M10.2759 76.1724L49 61" stroke="#296140" stroke-width="4" stroke-linecap="round" stroke-linejoin="round"/>
<path d="M16.4828 92.0345L49 79" stroke="#296140" stroke-width="4" stroke-linecap="round" stroke-linejoin="round"/>
<path d="M83.069 48.5862L149.276 22.3793" stroke="#296140" stroke-width="4" stroke-linecap="round" stroke-linejoin="round"/>
<path d="M129 48L155.483 37.5518" stroke="#296140" stroke-width="4" stroke-linecap="round" stroke-linejoin="round"/>
</svg>
