<svg width="26" height="26" viewBox="0 0 26 26" fill="none" xmlns="http://www.w3.org/2000/svg">
<rect width="26" height="26" fill="white"/>
<path fill-rule="evenodd" clip-rule="evenodd" d="M19.067 8.40371C19.3716 8.0991 19.2893 7.52292 18.8831 7.11678C18.477 6.71063 17.9008 6.62832 17.5962 6.93293L13 11.5291L8.4038 6.93293C8.09919 6.62832 7.52301 6.71064 7.11686 7.11678C6.71072 7.52293 6.62841 8.09911 6.93301 8.40372L11.5292 12.9999L6.93303 17.5961C6.62842 17.9007 6.71073 18.4769 7.11688 18.883C7.52302 19.2892 8.0992 19.3715 8.40381 19.0669L13 14.4707L17.5962 19.0669C17.9008 19.3715 18.477 19.2892 18.8831 18.883C19.2893 18.4769 19.3716 17.9007 19.067 17.5961L14.4708 12.9999L19.067 8.40371Z" fill="#A0AAA5"/>
</svg>
