<svg width="360" height="360" viewBox="0 0 360 360" fill="none" xmlns="http://www.w3.org/2000/svg">
<circle cx="180" cy="180" r="180" fill="#ECF2ED"/>
<path d="M324.095 247.717H35.512C35.512 264.724 48.8978 269.764 55.5907 270.157H306.772C322.835 270.157 325.013 255.197 324.095 247.717Z" fill="#A8D9BD" stroke="#296140" stroke-width="3" stroke-linecap="round" stroke-linejoin="round"/>
<path d="M105.591 96.9292H64.6458V233.937H144.567M238.268 96.9292H294.567V233.937H255.591" stroke="#296140" stroke-width="3" stroke-linecap="round" stroke-linejoin="round"/>
<path d="M109.134 96.9292H117.795M120.945 96.9292H123.701M233.937 96.9292H224.882M222.126 96.9292H219.37M148.504 233.937H157.559M159.921 233.937H163.465" stroke="#296140" stroke-width="3" stroke-linecap="round" stroke-linejoin="round"/>
<rect x="48.4292" y="79.9253" width="263.929" height="167.079" rx="18.5" stroke="#296140" stroke-width="3" stroke-linecap="round" stroke-linejoin="round"/>
<path d="M143.717 190.571H216.283C217.876 190.571 218.83 188.799 217.951 187.469L181.669 132.527C180.878 131.33 179.122 131.33 178.331 132.527L142.049 187.469C141.17 188.799 142.124 190.571 143.717 190.571Z" fill="#FCFFFC" stroke="#296140" stroke-width="3"/>
<path d="M179.452 171.6C178.903 171.6 178.434 171.417 178.046 171.051C177.657 170.663 177.452 170.194 177.429 169.646L176.914 156.069C176.892 155.543 177.063 155.086 177.429 154.697C177.794 154.309 178.24 154.114 178.766 154.114H180.617C181.143 154.114 181.589 154.309 181.954 154.697C182.32 155.086 182.492 155.543 182.469 156.069L181.954 169.646C181.932 170.194 181.726 170.663 181.337 171.051C180.949 171.417 180.48 171.6 179.932 171.6H179.452ZM180.274 174.343C180.8 174.343 181.246 174.537 181.612 174.926C182 175.314 182.194 175.771 182.194 176.297V177.189C182.194 177.714 182 178.171 181.612 178.56C181.246 178.949 180.8 179.143 180.274 179.143H179.109C178.583 179.143 178.126 178.949 177.737 178.56C177.372 178.171 177.189 177.714 177.189 177.189V176.297C177.189 175.771 177.372 175.314 177.737 174.926C178.126 174.537 178.583 174.343 179.109 174.343H180.274Z" fill="#296140"/>
</svg>
