<svg width="258" height="258" viewBox="0 0 258 258" fill="none" xmlns="http://www.w3.org/2000/svg">
<rect width="258" height="258" fill="white"/>
<path d="M118 79H40C36.6863 79 34 81.6863 34 85V106.5H124V85C124 81.6863 121.314 79 118 79Z" fill="#A8D9BD"/>
<path d="M217 42H139C135.686 42 133 44.6863 133 48V69.5H223V48C223 44.6863 220.314 42 217 42Z" fill="#A8D9BD"/>
<path d="M36 85C36 82.7909 37.7909 81 40 81H118C120.209 81 122 82.7909 122 85V106.5V209C122 211.209 120.209 213 118 213H40C37.7909 213 36 211.209 36 209V106.5V85Z" stroke="#296140" stroke-width="4"/>
<line x1="49" y1="129" x2="96" y2="129" stroke="#296140" stroke-width="4" stroke-linecap="round"/>
<line x1="49" y1="144" x2="96" y2="144" stroke="#296140" stroke-width="4" stroke-linecap="round"/>
<line x1="49" y1="189" x2="96" y2="189" stroke="#296140" stroke-width="4" stroke-linecap="round"/>
<line x1="49" y1="159" x2="80" y2="159" stroke="#296140" stroke-width="4" stroke-linecap="round"/>
<line x1="49" y1="174" x2="80" y2="174" stroke="#296140" stroke-width="4" stroke-linecap="round"/>
<path d="M135 46C135 43.7909 136.791 42 139 42H217C219.209 42 221 43.7909 221 46V67.5V170C221 172.209 219.209 174 217 174H139C136.791 174 135 172.209 135 170V67.5V46Z" stroke="#296140" stroke-width="4"/>
<line x1="148" y1="90" x2="195" y2="90" stroke="#296140" stroke-width="4" stroke-linecap="round"/>
<line x1="148" y1="105" x2="195" y2="105" stroke="#296140" stroke-width="4" stroke-linecap="round"/>
<line x1="148" y1="150" x2="195" y2="150" stroke="#296140" stroke-width="4" stroke-linecap="round"/>
<line x1="148" y1="120" x2="179" y2="120" stroke="#296140" stroke-width="4" stroke-linecap="round"/>
<line x1="148" y1="135" x2="179" y2="135" stroke="#296140" stroke-width="4" stroke-linecap="round"/>
<path fill-rule="evenodd" clip-rule="evenodd" d="M153.658 208.479L166.143 195.994L153.671 183.522L153.488 183.362C152.789 182.83 151.786 182.884 151.147 183.523L150.987 183.706C150.454 184.406 150.507 185.409 151.146 186.047L159.711 194.613H110.784L110.542 194.629C109.671 194.747 109 195.494 109 196.398C109 197.384 109.799 198.184 110.784 198.184H158.908L151.135 205.957L150.976 206.14C150.443 206.839 150.496 207.842 151.134 208.481C151.831 209.177 152.961 209.177 153.658 208.479Z" fill="#296140"/>
<path fill-rule="evenodd" clip-rule="evenodd" d="M103.485 43.5234L91 56.0084L103.472 68.4806L103.655 68.6403C104.354 69.1723 105.357 69.1185 105.996 68.4793L106.156 68.2965C106.689 67.5968 106.636 66.5941 105.997 65.9556L97.4318 57.39L146.359 57.39L146.601 57.3737C147.472 57.2555 148.143 56.5084 148.143 55.6045C148.143 54.6184 147.344 53.819 146.359 53.819L98.2353 53.819L106.008 46.0458L106.167 45.863C106.7 45.1632 106.647 44.1606 106.009 43.5221C105.312 42.8255 104.182 42.8261 103.485 43.5234Z" fill="#296140"/>
</svg>
