<svg width="258" height="258" viewBox="0 0 258 258" fill="none" xmlns="http://www.w3.org/2000/svg">
<rect width="258" height="258" fill="white"/>
<rect x="41" y="154.353" width="175.765" height="21" rx="6" fill="#A8D9BD"/>
<path fill-rule="evenodd" clip-rule="evenodd" d="M47 59H210.765C215.183 59 218.765 62.5817 218.765 67V169.353C218.765 173.771 215.183 177.353 210.765 177.353H47C42.5817 177.353 39 173.771 39 169.353V67C39 62.5817 42.5817 59 47 59ZM210.765 63H47C44.7909 63 43 64.7909 43 67V169.353C43 171.562 44.7909 173.353 47 173.353H210.765C212.974 173.353 214.765 171.562 214.765 169.353V67C214.765 64.7909 212.974 63 210.765 63Z" fill="#296140"/>
<path d="M41 154.176H216.765" stroke="#296140" stroke-width="4"/>
<path d="M116.176 175.353L114.059 185.941H142.647L140.529 175.353" stroke="#296140" stroke-width="4"/>
<path fill-rule="evenodd" clip-rule="evenodd" d="M104.529 192C104.529 188.686 107.216 186 110.529 186H145.118C148.431 186 151.118 188.686 151.118 192V196.765C151.118 198.422 149.775 199.765 148.118 199.765H107.529C105.873 199.765 104.529 198.422 104.529 196.765V192Z" stroke="#296140" stroke-width="4"/>
<path fill-rule="evenodd" clip-rule="evenodd" d="M170.941 134.118C170.941 130.804 173.627 128.118 176.941 128.118H213.941C217.255 128.118 219.941 130.804 219.941 134.118V201.118C219.941 204.431 217.255 207.118 213.941 207.118H176.941C173.627 207.118 170.941 204.431 170.941 201.118V134.118Z" fill="white" stroke="#296140" stroke-width="4"/>
<path fill-rule="evenodd" clip-rule="evenodd" d="M176.941 139.118C176.941 135.804 179.627 133.118 182.941 133.118H207.941C211.255 133.118 213.941 135.804 213.941 139.118V196.118C213.941 199.431 211.255 202.118 207.941 202.118H182.941C179.627 202.118 176.941 199.431 176.941 196.118V139.118Z" fill="#A8D9BD"/>
</svg>
