<svg id="Capa_1" data-name="Capa 1" xmlns="http://www.w3.org/2000/svg" viewBox="0 0 785.2 295.41"><defs><style>.cls-1{fill:#296140;}.cls-2{fill:#fff;}.cls-3{fill:#b3975a;}.cls-4{fill:#5a0c32;}</style></defs><path class="cls-1" d="M-.12,218.11S394,302.83,593.72,296s236-124.81,141.84-295H-.12Z" transform="translate(0.12 -1)"/><path class="cls-2" d="M237.71,139.22l-.16-27.3a12.09,12.09,0,0,1-.85,2.81l-10.46,23.7h-4.73l-10-22.86a8.77,8.77,0,0,1-.85-2.86l-.39,26.51h-6.11l.65-38.66h6.88l12.64,28.63,13-28.63h6.81l.46,38.66Z" transform="translate(0.12 -1)"/><path class="cls-2" d="M296.06,118a14.47,14.47,0,0,0-2.75-.3c-2.45,0-3.14.52-6.27,5.49v16.06h-7V111.89l5.55-.45a23.86,23.86,0,0,1,.82,6.11c2.55-5.19,4-6.11,6.55-6.11a13.93,13.93,0,0,1,3.86.57Z" transform="translate(0.12 -1)"/><path class="cls-2" d="M318,117.55a18.26,18.26,0,0,0-5.23-.8c-4.92,0-7.07,2.88-7.07,9.28,0,5.34,1.86,8,6.33,8a15.59,15.59,0,0,0,6.55-1.56l1.79,4.91a20.22,20.22,0,0,1-9.8,2.25c-7.76,0-11.93-3.63-11.93-13,0-10.3,5.67-15.32,13.5-15.32a17.93,17.93,0,0,1,7.29,1.22Z" transform="translate(0.12 -1)"/><path class="cls-2" d="M371.2,139.22v-19c0-1.9-.58-3.12-2.71-3.12-1.8,0-4.3,1.28-6.67,3.52v18.55h-7.08V111.89l6.15-.41a16.41,16.41,0,0,1,.69,4.23c3.24-2.95,6.67-4.44,9.68-4.44,5.16,0,7.08,2.48,7.08,7.67v20.28Z" transform="translate(0.12 -1)"/><path class="cls-2" d="M392.14,139.68c-4.86,0-7.29-2-7.29-7V117l.17-5,.07-7.94,6.89-.51V112h8.11l-.4,5.09H392v15.31c0,1.48.51,2,2,2a14.68,14.68,0,0,0,5.45-1.16l1.21,4.68a18.09,18.09,0,0,1-8.52,1.79" transform="translate(0.12 -1)"/><path class="cls-2" d="M405.78,139.22V112l7-.4v27.61Zm-.17-38.88h7.13v6.24h-7.13Z" transform="translate(0.12 -1)"/><path class="cls-2" d="M420.46,97.73l7-.4v34.33c0,1.9.11,2.36,1.68,2.36a19.53,19.53,0,0,0,2.26-.12l.16,4.92a22.32,22.32,0,0,1-5.72.68c-3.59,0-5.34-1.49-5.34-5.37Z" transform="translate(0.12 -1)"/><path class="cls-2" d="M458.53,139.7a27.34,27.34,0,0,1-12-2.52l1.86-5.89a28.72,28.72,0,0,0,10.8,2.4c4.45,0,6.8-1.95,6.8-4.65s-1.24-4.2-7-5.88c-7.64-2.18-11-4.49-11-11.39,0-6.61,4.55-11.76,13.11-11.76a25.3,25.3,0,0,1,11.35,2.36l-1.74,5.44a28.07,28.07,0,0,0-9.15-1.85c-4.45,0-6.31,1.68-6.31,4.82,0,2.75,1,4.19,6.31,5.76,9.61,2.8,11.68,5.67,11.68,11.32,0,6.61-5,11.84-14.61,11.84" transform="translate(0.12 -1)"/><path class="cls-2" d="M525.91,139.22v-19c0-1.9-.58-3.12-2.74-3.12-1.78,0-4.27,1.28-6.64,3.52v18.55h-7.07V111.89l6.13-.41a15.58,15.58,0,0,1,.69,4.23c3.26-2.95,6.67-4.44,9.69-4.44,5.15,0,7.08,2.48,7.08,7.67v20.28Z" transform="translate(0.12 -1)"/><path class="cls-2" d="M548.33,139.68c-4.87,0-7.3-2-7.3-7V117l-3.47-.16.41-4.75,3.23-.11.82-8.5,6.14-.51v9h8.12l-.41,5.09h-7.71v15.31c0,1.48.52,2,2,2a14.86,14.86,0,0,0,5.46-1.16l1.21,4.68a18.26,18.26,0,0,1-8.53,1.79" transform="translate(0.12 -1)"/><path class="cls-2" d="M650.94,117.78c-.89-.06-1.51-.11-2.22-.11-2.44,0-3.12.52-6.25,5.49v16.06h-7V111.89l5.57-.46a24.14,24.14,0,0,1,.81,6.12c2.55-5.19,4-6.12,6.54-6.12a13.11,13.11,0,0,1,3.31.41Z" transform="translate(0.12 -1)"/><polygon class="cls-2" points="706.45 115.11 693.93 133.13 706.73 133.13 706.23 138.22 685.58 138.22 685.12 133.76 697.92 115.97 685.76 115.97 686.34 110.95 706.04 110.95 706.45 115.11"/><path class="cls-2" d="M627,107.89a25.47,25.47,0,0,0-8.78-1.83c-6.4,0-10.28,4.54-10.28,14.07,0,10.69,4.62,13.56,10,13.56a20.72,20.72,0,0,0,10.35-3l1.91,5.22a24.48,24.48,0,0,1-13.66,3.69c-10.51,0-16.08-5.78-16.08-18.88,0-12.66,6.41-20.51,17.64-20.51,5,0,7.82.67,10.86,2.07Z" transform="translate(0.12 -1)"/><path class="cls-2" d="M272.27,131.71a20.76,20.76,0,0,1-9,2.61c-4.63,0-6.61-2.47-6.61-7.35,0-1.39.12-3.19.24-4.22.49-4.1,2.6-6.29,5.8-6.29,2.89,0,4.45,2,4.45,6.29h-8V127h14.16a23.89,23.89,0,0,0,.17-3.11c0-7.69-2.61-12.54-10-12.54-8.75,0-13.74,6-13.74,15.42,0,9.19,4.65,12.88,12.58,12.88A22.36,22.36,0,0,0,274,136.39Z" transform="translate(0.12 -1)"/><path class="cls-2" d="M346.34,131.53V120.21c0-5.72-1.79-9.06-8.3-9.06a21.44,21.44,0,0,0-13.55,4.32l2.79,4.28a16.38,16.38,0,0,1,9.1-3.17c2.08,0,2.89.86,2.89,3.34v12.25a8.21,8.21,0,0,1-5.68,2.67,3.28,3.28,0,0,1-3.54-3.58c0-1.88,1.48-2.77,7.1-3.31V124.1c-11.72,1.16-13.82,3.74-13.82,7.43,0,5.25,3.49,8.15,7.65,8.15a10.81,10.81,0,0,0,8.57-3.58c.64,2.19,2.74,3.4,6.73,3.4.81,0,1.81,0,2.84-.05l1.16-5.13c-3.71-.48-3.94-.76-3.94-2.79" transform="translate(0.12 -1)"/><path class="cls-2" d="M501.05,131.53V120.21c0-5.72-1.8-9.06-8.29-9.06a21.41,21.41,0,0,0-13.56,4.32l2.77,4.28a16.46,16.46,0,0,1,9.1-3.17c2.1,0,2.91.86,2.91,3.34v12.25a8.23,8.23,0,0,1-5.69,2.67,3.28,3.28,0,0,1-3.53-3.58c0-1.88,1.49-2.77,7.1-3.31V124.1c-11.72,1.16-13.82,3.74-13.82,7.43,0,5.25,3.48,8.15,7.65,8.15a10.8,10.8,0,0,0,8.57-3.58c.64,2.19,2.73,3.4,6.71,3.4.83,0,1.81,0,2.87-.05l1.15-5.13c-3.71-.48-3.94-.76-3.94-2.79" transform="translate(0.12 -1)"/><path class="cls-2" d="M582.76,131.53V120.21c0-5.72-1.81-9.06-8.29-9.06a21.45,21.45,0,0,0-13.56,4.32l2.79,4.28a16.32,16.32,0,0,1,9.1-3.18c2.08,0,2.89.87,2.89,3.35v12.25a8.19,8.19,0,0,1-5.68,2.67,3.27,3.27,0,0,1-3.54-3.58c0-1.88,1.48-2.77,7.1-3.31V124.1c-11.72,1.16-13.82,3.74-13.82,7.43,0,5.25,3.48,8.15,7.66,8.15A10.83,10.83,0,0,0,576,136.1c.63,2.19,2.72,3.4,6.73,3.4.8,0,1.79,0,2.83-.05l1.16-5.13c-3.7-.48-3.94-.76-3.94-2.79" transform="translate(0.12 -1)"/><path class="cls-2" d="M682.18,134.24c-2.83-.38-3.36-.68-3.45-2.06V111.72l-7.12.35v18.55c-2.43,2.25-4.63,3.21-6.38,3.21-2.08,0-2.84-1.14-2.84-3.11v-19l-7.12.29v19.87c0,5.09,1.79,7.8,7.06,7.8,3,0,6.3-1.32,9.49-4.19,0,.18.06.36.11.6.64,2.2,2.73,3.41,6.73,3.41.8,0,1.79,0,2.83-.05Z" transform="translate(0.12 -1)"/><path class="cls-3" d="M79.18,120a43.09,43.09,0,1,1,43.07,43,43,43,0,0,1-43.07-43" transform="translate(0.12 -1)"/><path class="cls-4" d="M122.25,162.64A42.68,42.68,0,1,1,165.07,120a42.78,42.78,0,0,1-42.82,42.68M166.62,120a44.35,44.35,0,1,0-44.37,44.22A44.34,44.34,0,0,0,166.62,120" transform="translate(0.12 -1)"/><path class="cls-4" d="M122.25,162.64A42.68,42.68,0,1,1,165.07,120a42.78,42.78,0,0,1-42.82,42.68M166.62,120a44.35,44.35,0,1,0-44.37,44.22A44.34,44.34,0,0,0,166.62,120" transform="translate(0.12 -1)"/><path class="cls-4" d="M90.82,120c0,17.71,14.11,32.11,31.43,32.11S153.7,137.67,153.7,120s-14.09-32.11-31.45-32.11S90.82,102.27,90.82,120m1.2,0c0-17,13.57-30.88,30.23-30.88s30.24,13.86,30.24,30.88-13.56,30.88-30.24,30.88S92,137,92,120" transform="translate(0.12 -1)"/><polygon class="cls-4" points="87.52 109.5 86.77 111.25 86.75 111.24 85.89 109.55 83.97 109.38 83.97 109.36 85.34 108.08 84.9 106.22 84.92 106.22 86.59 107.15 88.27 106.14 88.27 106.16 87.94 108.05 89.37 109.23 89.36 109.25 87.52 109.5"/><polygon class="cls-4" points="87.52 109.5 86.77 111.25 86.75 111.24 85.89 109.55 83.97 109.38 83.97 109.36 85.34 108.08 84.9 106.22 84.92 106.22 86.59 107.15 88.27 106.14 88.27 106.16 87.94 108.05 89.37 109.23 89.36 109.25 87.52 109.5"/><polygon class="cls-4" points="86.98 126.1 87.08 128.03 87.06 128.03 85.54 126.86 83.76 127.59 83.74 127.59 84.39 125.8 83.18 124.36 83.18 124.35 85.1 124.41 86.14 122.79 86.14 122.79 86.71 124.59 88.5 125.06 88.5 125.07 86.98 126.1"/><polygon class="cls-4" points="86.98 126.1 87.08 128.03 87.06 128.03 85.54 126.86 83.76 127.59 83.74 127.59 84.39 125.8 83.18 124.36 83.18 124.35 85.1 124.41 86.14 122.79 86.14 122.79 86.71 124.59 88.5 125.06 88.5 125.07 86.98 126.1"/><polygon class="cls-4" points="93.95 141.22 94.94 142.87 94.93 142.87 93 142.55 91.79 143.98 91.76 143.98 91.5 142.12 89.79 141.38 89.79 141.37 91.5 140.56 91.72 138.64 91.73 138.63 93.02 140.01 94.87 139.59 94.88 139.61 93.95 141.22"/><polygon class="cls-4" points="93.95 141.22 94.94 142.87 94.93 142.87 93 142.55 91.79 143.98 91.76 143.98 91.5 142.12 89.79 141.38 89.79 141.37 91.5 140.56 91.72 138.64 91.73 138.63 93.02 140.01 94.87 139.59 94.88 139.61 93.95 141.22"/><polygon class="cls-4" points="107.04 151.59 108.63 152.63 108.63 152.63 106.8 153.2 106.32 155.04 106.28 155.04 105.25 153.49 103.37 153.59 103.36 153.58 104.55 152.09 103.86 150.27 103.86 150.27 105.67 150.91 107.11 149.74 107.11 149.74 107.04 151.59"/><polygon class="cls-4" points="107.04 151.59 108.63 152.63 108.63 152.63 106.8 153.2 106.32 155.04 106.28 155.04 105.25 153.49 103.37 153.59 103.36 153.58 104.55 152.09 103.86 150.27 103.86 150.27 105.67 150.91 107.11 149.74 107.11 149.74 107.04 151.59"/><polygon class="cls-4" points="123.38 154.93 125.28 155.18 125.28 155.18 123.88 156.48 124.29 158.37 124.29 158.39 122.63 157.44 121 158.41 120.98 158.39 121.38 156.51 119.94 155.22 119.94 155.21 121.84 154.95 122.61 153.27 122.62 153.27 123.38 154.93"/><polygon class="cls-4" points="123.38 154.93 125.28 155.18 125.28 155.18 123.88 156.48 124.29 158.37 124.29 158.39 122.63 157.44 121 158.41 120.98 158.39 121.38 156.51 119.94 155.22 119.94 155.21 121.84 154.95 122.61 153.27 122.62 153.27 123.38 154.93"/><polygon class="cls-4" points="139.49 150.7 141.31 150.01 141.32 150.03 140.65 151.85 141.86 153.31 141.86 153.33 139.96 153.26 138.95 154.82 138.93 154.81 138.42 152.98 136.57 152.45 136.57 152.44 138.14 151.4 138.05 149.51 138.07 149.51 139.49 150.7"/><polygon class="cls-4" points="139.49 150.7 141.31 150.01 141.32 150.03 140.65 151.85 141.86 153.31 141.86 153.33 139.96 153.26 138.95 154.82 138.93 154.81 138.42 152.98 136.57 152.45 136.57 152.44 138.14 151.4 138.05 149.51 138.07 149.51 139.49 150.7"/><polygon class="cls-4" points="152 139.61 153.29 138.21 153.29 138.23 153.56 140.12 155.27 140.92 155.27 140.94 153.57 141.7 153.34 143.55 153.32 143.55 152.07 142.13 150.15 142.5 150.13 142.49 151.1 140.84 150.16 139.22 150.17 139.21 152 139.61"/><polygon class="cls-4" points="152 139.61 153.29 138.21 153.29 138.23 153.56 140.12 155.27 140.92 155.27 140.94 153.57 141.7 153.34 143.55 153.32 143.55 152.07 142.13 150.15 142.5 150.13 142.49 151.1 140.84 150.16 139.22 150.17 139.21 152 139.61"/><polygon class="cls-4" points="158.11 124.14 158.65 122.31 158.67 122.31 159.73 123.91 161.65 123.83 161.66 123.86 160.45 125.3 161.12 127.07 161.11 127.08 159.31 126.37 157.8 127.57 157.79 127.57 157.87 125.64 156.33 124.62 156.33 124.61 158.11 124.14"/><polygon class="cls-4" points="156.66 107.61 156.31 105.7 156.33 105.7 157.99 106.68 159.68 105.73 159.69 105.74 159.28 107.6 160.66 108.85 160.64 108.87 158.73 109.08 157.89 110.79 157.89 110.79 157.12 109.08 155.27 108.81 155.27 108.8 156.66 107.61"/><polygon class="cls-4" points="156.66 107.61 156.31 105.7 156.33 105.7 157.99 106.68 159.68 105.73 159.69 105.74 159.28 107.6 160.66 108.85 160.64 108.87 158.73 109.08 157.89 110.79 157.89 110.79 157.12 109.08 155.27 108.81 155.27 108.8 156.66 107.61"/><path class="cls-4" d="M97.53,95.39l-1.29-1.24a1.92,1.92,0,0,1,1.14-.6.8.8,0,0,1,.6.25A.82.82,0,0,1,98,95a4.1,4.1,0,0,1-.48.44M94.6,92.55c.53-.5,1-.59,1.42-.23a.88.88,0,0,1,.29.6.77.77,0,0,1-.23.51s-.17.17-.29.27Zm2.32.28a1.19,1.19,0,0,0-.34-1.28c-.6-.59-1.45-.45-2.25.35a5.48,5.48,0,0,0-1.06,1.33.34.34,0,0,0,.2.44l0,0,.08-.06.41-.32,2.84,2.75-.18.33a.42.42,0,0,0,0,.34.34.34,0,0,0,.19.2l.09,0,.07-.06c.34-.37.38-.42.77-.83l0,0,.36-.34a4.56,4.56,0,0,0,.35-.33A1.6,1.6,0,0,0,98.54,93a1.41,1.41,0,0,0-1.62-.15" transform="translate(0.12 -1)"/><path class="cls-4" d="M97.53,95.39l-1.29-1.24a1.92,1.92,0,0,1,1.14-.6.8.8,0,0,1,.6.25A.82.82,0,0,1,98,95a4.1,4.1,0,0,1-.48.44M94.6,92.55c.53-.5,1-.59,1.42-.23a.88.88,0,0,1,.29.6.77.77,0,0,1-.23.51s-.17.17-.29.27Zm2.32.28a1.19,1.19,0,0,0-.34-1.28c-.6-.59-1.45-.45-2.25.35a5.48,5.48,0,0,0-1.06,1.33.34.34,0,0,0,.2.44l0,0,.08-.06.41-.32,2.84,2.75-.18.33a.42.42,0,0,0,0,.34.34.34,0,0,0,.19.2l.09,0,.07-.06c.34-.37.38-.42.77-.83l0,0,.36-.34a4.56,4.56,0,0,0,.35-.33A1.6,1.6,0,0,0,98.54,93a1.41,1.41,0,0,0-1.62-.15" transform="translate(0.12 -1)"/><path class="cls-4" d="M106.28,88.34a1.42,1.42,0,0,1-.69.82c-.84.47-1.66.07-2.33-1.09s-.44-1.92.36-2.37a1.43,1.43,0,0,1,1.07-.17,2.35,2.35,0,0,1,1.26,1.2,2.2,2.2,0,0,1,.33,1.61m-2.82-3.43a3,3,0,0,0,.64,5.31,2.13,2.13,0,0,0,1.62-.25,2.72,2.72,0,0,0,.94-4c-.78-1.38-1.91-1.76-3.2-1" transform="translate(0.12 -1)"/><path class="cls-4" d="M106.28,88.34a1.42,1.42,0,0,1-.69.82c-.84.47-1.66.07-2.33-1.09s-.44-1.92.36-2.37a1.43,1.43,0,0,1,1.07-.17,2.35,2.35,0,0,1,1.26,1.2,2.2,2.2,0,0,1,.33,1.61m-2.82-3.43a3,3,0,0,0,.64,5.31,2.13,2.13,0,0,0,1.62-.25,2.72,2.72,0,0,0,.94-4c-.78-1.38-1.91-1.76-3.2-1" transform="translate(0.12 -1)"/><path class="cls-4" d="M116.63,84.54v-.09l-.1,0a.52.52,0,0,0-.37,0,.61.61,0,0,0-.22.37s0,.39-.08.58l-1.65.27-.85-3.81.33-.09a.44.44,0,0,0,.34-.6l0-.11-.12,0-1.64.36a.55.55,0,0,0-.41.27.43.43,0,0,0,0,.34l.06.08H112l.46-.06.88,3.9-.3.16a.38.38,0,0,0-.21.24.46.46,0,0,0,.07.3l.05.06.09,0,3.55-.79.1,0V84.54Z" transform="translate(0.12 -1)"/><path class="cls-4" d="M116.63,84.54v-.09l-.1,0a.52.52,0,0,0-.37,0,.61.61,0,0,0-.22.37s0,.39-.08.58l-1.65.27-.85-3.81.33-.09a.44.44,0,0,0,.34-.6l0-.11-.12,0-1.64.36a.55.55,0,0,0-.41.27.43.43,0,0,0,0,.34l.06.08H112l.46-.06.88,3.9-.3.16a.38.38,0,0,0-.21.24.46.46,0,0,0,.07.3l.05.06.09,0,3.55-.79.1,0V84.54Z" transform="translate(0.12 -1)"/><path class="cls-4" d="M123.91,80.88a.44.44,0,0,0,.35-.14.53.53,0,0,0,.09-.35v-.11h-.12l-1.61,0a.5.5,0,0,0-.45.17.34.34,0,0,0-.07.32l0,.09h.09l.48.07-.12,4-.37.07a.5.5,0,0,0-.33.19.42.42,0,0,0,0,.3l0,.09h.1c.21,0,.56,0,.89,0h.07a6,6,0,0,1,.82,0,.73.73,0,0,0,.37-.11.44.44,0,0,0,.13-.31V85l-.09,0-.63-.13.11-4Z" transform="translate(0.12 -1)"/><path class="cls-4" d="M123.91,80.88a.44.44,0,0,0,.35-.14.53.53,0,0,0,.09-.35v-.11h-.12l-1.61,0a.5.5,0,0,0-.45.17.34.34,0,0,0-.07.32l0,.09h.09l.48.07-.12,4-.37.07a.5.5,0,0,0-.33.19.42.42,0,0,0,0,.3l0,.09h.1c.21,0,.56,0,.89,0h.07a6,6,0,0,1,.82,0,.73.73,0,0,0,.37-.11.44.44,0,0,0,.13-.31V85l-.09,0-.63-.13.11-4Z" transform="translate(0.12 -1)"/><path class="cls-4" d="M133.75,82a.52.52,0,0,0-.46,0,.5.5,0,0,0-.14.28v.08l.09,0,.42.21-1.82,2.75-.2-3.33.27.06a.52.52,0,0,0,.63-.37l0-.11-.13-.05-1.61-.46a.54.54,0,0,0-.46.06.35.35,0,0,0-.18.3v.09l.07,0,.37.16.25,5v.11H131a1,1,0,0,0,1.07-.5L134.41,83a.77.77,0,0,0,.58,0,.65.65,0,0,0,.27-.44l0-.11-.12,0Z" transform="translate(0.12 -1)"/><path class="cls-4" d="M133.75,82a.52.52,0,0,0-.46,0,.5.5,0,0,0-.14.28v.08l.09,0,.42.21-1.82,2.75-.2-3.33.27.06a.52.52,0,0,0,.63-.37l0-.11-.13-.05-1.61-.46a.54.54,0,0,0-.46.06.35.35,0,0,0-.18.3v.09l.07,0,.37.16.25,5v.11H131a1,1,0,0,0,1.07-.5L134.41,83a.77.77,0,0,0,.58,0,.65.65,0,0,0,.27-.44l0-.11-.12,0Z" transform="translate(0.12 -1)"/><path class="cls-4" d="M141.35,85.4a.51.51,0,0,0-.47-.1.37.37,0,0,0-.22.25l0,.08.06.06.41.3L139,89.4l-.35-.11a.41.41,0,0,0-.38,0,.33.33,0,0,0-.16.25l0,.1.08,0,.82.48c.28.15.54.33.72.44a.44.44,0,0,0,.37.09.42.42,0,0,0,.27-.2l0-.09-.08-.09-.48-.41,2-3.42.26.11a.51.51,0,0,0,.37.06.56.56,0,0,0,.25-.28l0-.1-.1-.06Z" transform="translate(0.12 -1)"/><path class="cls-4" d="M141.35,85.4a.51.51,0,0,0-.47-.1.37.37,0,0,0-.22.25l0,.08.06.06.41.3L139,89.4l-.35-.11a.41.41,0,0,0-.38,0,.33.33,0,0,0-.16.25l0,.1.08,0,.82.48c.28.15.54.33.72.44a.44.44,0,0,0,.37.09.42.42,0,0,0,.27-.2l0-.09-.08-.09-.48-.41,2-3.42.26.11a.51.51,0,0,0,.37.06.56.56,0,0,0,.25-.28l0-.1-.1-.06Z" transform="translate(0.12 -1)"/><path class="cls-4" d="M147.36,93.38l1.52-.73-.79,1.49Zm2.71-1.15,0-.06c-.08-.12-.15-.18-.22-.27a.58.58,0,0,0-.74-.13s-3.67,1.66-4.19,1.88l-.3-.18a.49.49,0,0,0-.27,0,.37.37,0,0,0-.23.21l0,.08.08.07c.14.12.33.33.51.5l.56.63a.45.45,0,0,0,.6.06l.11-.07-.07-.1-.37-.54,1.25-.58,1,1.08-.61,1.2-.4-.25a.38.38,0,0,0-.28,0,.41.41,0,0,0-.22.21l0,.07,0,.06.63.62c.31.32.54.59.63.68a.42.42,0,0,0,.61.07l.1-.07-.06-.09-.29-.47,2.15-4.47Z" transform="translate(0.12 -1)"/><path class="cls-4" d="M147.36,93.38l1.52-.73-.79,1.49Zm2.71-1.15,0-.06c-.08-.12-.15-.18-.22-.27a.58.58,0,0,0-.74-.13s-3.67,1.66-4.19,1.88l-.3-.18a.49.49,0,0,0-.27,0,.37.37,0,0,0-.23.21l0,.08.08.07c.14.12.33.33.51.5l.56.63a.45.45,0,0,0,.6.06l.11-.07-.07-.1-.37-.54,1.25-.58,1,1.08-.61,1.2-.4-.25a.38.38,0,0,0-.28,0,.41.41,0,0,0-.22.21l0,.07,0,.06.63.62c.31.32.54.59.63.68a.42.42,0,0,0,.61.07l.1-.07-.06-.09-.29-.47,2.15-4.47Z" transform="translate(0.12 -1)"/><path class="cls-4" d="M127.73,143l-1.09,0c-.42,0-1,0-1.2,0,0-.13,0-.28.29-.34l.65-.15v-3.05c-.17,0-.5,0-.71,0s-.31-.08-.28-.34c.32-.05,1.52-.34,1.76-.43v3.8l1,.18a.36.36,0,0,1-.4.31" transform="translate(0.12 -1)"/><path class="cls-4" d="M127.73,143l-1.09,0c-.42,0-1,0-1.2,0,0-.13,0-.28.29-.34l.65-.15v-3.05c-.17,0-.5,0-.71,0s-.31-.08-.28-.34c.32-.05,1.52-.34,1.76-.43v3.8l1,.18a.36.36,0,0,1-.4.31" transform="translate(0.12 -1)"/><path class="cls-4" d="M131.71,140.74c0-.79-.26-1.55-.8-1.55-.34,0-.54.37-.54.76,0,.65.24,1,.74,1a1.76,1.76,0,0,0,.6-.1Zm-1.12,2.36c-.57,0-1.05-.28-1.05-.73a.33.33,0,0,1,.3-.33c.13.37.35.52.85.52s.92-.38,1-1.36a1.55,1.55,0,0,1-.9.22,1.16,1.16,0,0,1-1.21-1.28,1.48,1.48,0,0,1,1.46-1.43c.9,0,1.47.66,1.47,2,0,1.53-.59,2.41-1.92,2.41" transform="translate(0.12 -1)"/><path class="cls-4" d="M131.71,140.74c0-.79-.26-1.55-.8-1.55-.34,0-.54.37-.54.76,0,.65.24,1,.74,1a1.76,1.76,0,0,0,.6-.1Zm-1.12,2.36c-.57,0-1.05-.28-1.05-.73a.33.33,0,0,1,.3-.33c.13.37.35.52.85.52s.92-.38,1-1.36a1.55,1.55,0,0,1-.9.22,1.16,1.16,0,0,1-1.21-1.28,1.48,1.48,0,0,1,1.46-1.43c.9,0,1.47.66,1.47,2,0,1.53-.59,2.41-1.92,2.41" transform="translate(0.12 -1)"/><path class="cls-4" d="M135.36,139.3c-.41,0-.69.47-.69,1.56,0,1.26.37,1.65.83,1.65s.68-.43.68-1.56-.35-1.65-.82-1.65m-.1,3.79c-.76,0-1.37-.71-1.37-2.14,0-1.19.7-2.22,1.63-2.22s1.47.72,1.47,2.06-.76,2.3-1.73,2.3" transform="translate(0.12 -1)"/><path class="cls-4" d="M135.36,139.3c-.41,0-.69.47-.69,1.56,0,1.26.37,1.65.83,1.65s.68-.43.68-1.56-.35-1.65-.82-1.65m-.1,3.79c-.76,0-1.37-.71-1.37-2.14,0-1.19.7-2.22,1.63-2.22s1.47.72,1.47,2.06-.76,2.3-1.73,2.3" transform="translate(0.12 -1)"/><path class="cls-4" d="M140.43,139.54a4.87,4.87,0,0,1-1-.12l0,.9c1.19-.08,1.84.47,1.84,1.27a1.56,1.56,0,0,1-1.74,1.51c-.65,0-1.1-.32-1.1-.88a.36.36,0,0,1,.32-.32.91.91,0,0,0,.87.7.74.74,0,0,0,.8-.82c0-.76-.66-1.07-1.65-.9l.14-2a15.17,15.17,0,0,0,2.28,0c.15.37-.06.74-.69.74" transform="translate(0.12 -1)"/><path class="cls-4" d="M140.43,139.54a4.87,4.87,0,0,1-1-.12l0,.9c1.19-.08,1.84.47,1.84,1.27a1.56,1.56,0,0,1-1.74,1.51c-.65,0-1.1-.32-1.1-.88a.36.36,0,0,1,.32-.32.91.91,0,0,0,.87.7.74.74,0,0,0,.8-.82c0-.76-.66-1.07-1.65-.9l.14-2a15.17,15.17,0,0,0,2.28,0c.15.37-.06.74-.69.74" transform="translate(0.12 -1)"/><path class="cls-4" d="M115.92,128.36a12.52,12.52,0,0,0,.93,6.19c.27.63-.34.43-.34.43-1.51-.42-2.56-2-3.12-3.66a11.86,11.86,0,0,1-.48-3.81,40.87,40.87,0,0,1,.88-6.3,112.09,112.09,0,0,1,4-12.26c.12-.31,0-.39-.15-.33a.91.91,0,0,0-.25.26c-5.59,8.21-9.31,14.33-9.31,14.33-.47.68-.67,0-.67,0,.07-3,.48-14.2.48-14.2,0-.28,0-.36-.09-.38s-.27.28-.27.28c-.15.3-3.4,9.27-5.6,15a52.57,52.57,0,0,1-2.48,5.73,3.14,3.14,0,0,1-1.94,1.33,4.51,4.51,0,0,1-2.11.22c-.56-.1-.19-.54-.19-.54,1.89-1.26,4.47-5.46,6.55-10a147.79,147.79,0,0,0,5.62-14.62,2,2,0,0,0,.11-1.27.57.57,0,0,0-.52-.3c-3.91,0-6.16,4.5-6.16,4.5a6.48,6.48,0,0,0-.33,5.71c.16.45-.28.31-.28.31-3.39-1.3-2.11-5.36-2.11-5.36s1.53-7.06,13.27-6.2a.25.25,0,0,1,.2.29s-.62,10.07-.63,12.34c0,0,.11.64.42.09,0,0,5.78-8.63,8.52-12.4a.46.46,0,0,1,.44-.25s2.13-.07,4.31,0c0,0,.32,0,.29.24s0,.2-.25.33c0,0-.89.27-2,2a14.64,14.64,0,0,0-1.36,2.78,130.27,130.27,0,0,0-4.52,13.86,33.3,33.3,0,0,0-.81,5.82" transform="translate(0.12 -1)"/><path class="cls-4" d="M115.92,128.36a12.52,12.52,0,0,0,.93,6.19c.27.63-.34.43-.34.43-1.51-.42-2.56-2-3.12-3.66a11.86,11.86,0,0,1-.48-3.81,40.87,40.87,0,0,1,.88-6.3,112.09,112.09,0,0,1,4-12.26c.12-.31,0-.39-.15-.33a.91.91,0,0,0-.25.26c-5.59,8.21-9.31,14.33-9.31,14.33-.47.68-.67,0-.67,0,.07-3,.48-14.2.48-14.2,0-.28,0-.36-.09-.38s-.27.28-.27.28c-.15.3-3.4,9.27-5.6,15a52.57,52.57,0,0,1-2.48,5.73,3.14,3.14,0,0,1-1.94,1.33,4.51,4.51,0,0,1-2.11.22c-.56-.1-.19-.54-.19-.54,1.89-1.26,4.47-5.46,6.55-10a147.79,147.79,0,0,0,5.62-14.62,2,2,0,0,0,.11-1.27.57.57,0,0,0-.52-.3c-3.91,0-6.16,4.5-6.16,4.5a6.48,6.48,0,0,0-.33,5.71c.16.45-.28.31-.28.31-3.39-1.3-2.11-5.36-2.11-5.36s1.53-7.06,13.27-6.2a.25.25,0,0,1,.2.29s-.62,10.07-.63,12.34c0,0,.11.64.42.09,0,0,5.78-8.63,8.52-12.4a.46.46,0,0,1,.44-.25s2.13-.07,4.31,0c0,0,.32,0,.29.24s0,.2-.25.33c0,0-.89.27-2,2a14.64,14.64,0,0,0-1.36,2.78,130.27,130.27,0,0,0-4.52,13.86,33.3,33.3,0,0,0-.81,5.82" transform="translate(0.12 -1)"/><path class="cls-4" d="M108.48,131.54a7.65,7.65,0,0,1,8-7.12,6.84,6.84,0,0,1,3.17.69,3.92,3.92,0,0,1,2.08,2.34,4.32,4.32,0,0,1,0,2.44,3.38,3.38,0,0,1-2.2,2.18c-.69.23-.22-.39-.22-.39a6.3,6.3,0,0,0,.59-2.52c0-3.12-2.39-3.64-2.39-3.64a5.87,5.87,0,0,0-3.32.18c-3.16,1.12-3.39,5-3.39,5a6.34,6.34,0,0,0,3.73,7c5.11,1.91,9.19-1.91,9.19-1.91a7.33,7.33,0,0,0,2.11-7.45c-.47-1.79-3-5.78-3-5.78a14.24,14.24,0,0,1-2.22-4.35,7.26,7.26,0,0,1,.38-4.72c.79-1.81,2.63-4,6.57-4.62,0,0,3.22-.51,5.3.44a.32.32,0,0,1,.11.37,34.55,34.55,0,0,0-1.61,3.65.57.57,0,0,1-.26.29.32.32,0,0,1-.47-.35s.42-3.82-2.93-3.37a4.7,4.7,0,0,0-3.78,2.79,5.75,5.75,0,0,0-.12,4.15,20.22,20.22,0,0,0,2.35,4.26s3.07,4.38,3.26,6.85c0,0,1.11,6.5-6.28,10.06,0,0-5.87,2.86-11.13-.06a6.47,6.47,0,0,1-3.4-6.38" transform="translate(0.12 -1)"/><path class="cls-4" d="M108.48,131.54a7.65,7.65,0,0,1,8-7.12,6.84,6.84,0,0,1,3.17.69,3.92,3.92,0,0,1,2.08,2.34,4.32,4.32,0,0,1,0,2.44,3.38,3.38,0,0,1-2.2,2.18c-.69.23-.22-.39-.22-.39a6.3,6.3,0,0,0,.59-2.52c0-3.12-2.39-3.64-2.39-3.64a5.87,5.87,0,0,0-3.32.18c-3.16,1.12-3.39,5-3.39,5a6.34,6.34,0,0,0,3.73,7c5.11,1.91,9.19-1.91,9.19-1.91a7.33,7.33,0,0,0,2.11-7.45c-.47-1.79-3-5.78-3-5.78a14.24,14.24,0,0,1-2.22-4.35,7.26,7.26,0,0,1,.38-4.72c.79-1.81,2.63-4,6.57-4.62,0,0,3.22-.51,5.3.44a.32.32,0,0,1,.11.37,34.55,34.55,0,0,0-1.61,3.65.57.57,0,0,1-.26.29.32.32,0,0,1-.47-.35s.42-3.82-2.93-3.37a4.7,4.7,0,0,0-3.78,2.79,5.75,5.75,0,0,0-.12,4.15,20.22,20.22,0,0,0,2.35,4.26s3.07,4.38,3.26,6.85c0,0,1.11,6.5-6.28,10.06,0,0-5.87,2.86-11.13-.06a6.47,6.47,0,0,1-3.4-6.38" transform="translate(0.12 -1)"/><path class="cls-4" d="M136,131c-4,.07-5.47-2.53-5.86-5.51-.56-4.31,1.57-9.94,1.57-9.94s3.47-12.91,12.28-12.31a10,10,0,0,1,3.52,1,.41.41,0,0,1,.16.44s-1.89,4.24-2,5.9c0,0-.09.29-.46.17a2.64,2.64,0,0,1-1.57-3.49c.17-.48.35-.89.56-1.49a2.73,2.73,0,0,0,.28-1.11.35.35,0,0,0-.15-.27,2.8,2.8,0,0,0-1.09-.13,4,4,0,0,0-1.92.68c-3.59,2.49-6.48,12.38-6.48,12.38s-4.05,12.27,1,12.67c0,0,3.21.75,5.67-4.36a22.61,22.61,0,0,0,2.09-6.68s0-.35.23-.4.3.09.42.47a8.75,8.75,0,0,1-.8,7.58A8.27,8.27,0,0,1,136,131" transform="translate(0.12 -1)"/><path class="cls-4" d="M136,131c-4,.07-5.47-2.53-5.86-5.51-.56-4.31,1.57-9.94,1.57-9.94s3.47-12.91,12.28-12.31a10,10,0,0,1,3.52,1,.41.41,0,0,1,.16.44s-1.89,4.24-2,5.9c0,0-.09.29-.46.17a2.64,2.64,0,0,1-1.57-3.49c.17-.48.35-.89.56-1.49a2.73,2.73,0,0,0,.28-1.11.35.35,0,0,0-.15-.27,2.8,2.8,0,0,0-1.09-.13,4,4,0,0,0-1.92.68c-3.59,2.49-6.48,12.38-6.48,12.38s-4.05,12.27,1,12.67c0,0,3.21.75,5.67-4.36a22.61,22.61,0,0,0,2.09-6.68s0-.35.23-.4.3.09.42.47a8.75,8.75,0,0,1-.8,7.58A8.27,8.27,0,0,1,136,131" transform="translate(0.12 -1)"/><path class="cls-2" d="M237.82,139.65l-.16-27.32a12.09,12.09,0,0,1-.85,2.81l-10.46,23.72h-4.74L211.6,116a8.74,8.74,0,0,1-.84-2.86l-.39,26.53h-6.12L204.9,101h6.88l12.65,28.65,13-28.65h6.81l.46,38.69Z" transform="translate(0.12 -1)"/><path class="cls-2" d="M296.22,118.39a14.88,14.88,0,0,0-2.76-.31c-2.45,0-3.14.52-6.28,5.5v16.07h-7V112.3l5.55-.46c.42.86.7,3.58.82,6.12,2.55-5.2,4-6.12,6.56-6.12a14,14,0,0,1,3.86.58Z" transform="translate(0.12 -1)"/><path class="cls-2" d="M318.17,118a18.63,18.63,0,0,0-5.24-.79c-4.92,0-7.07,2.87-7.07,9.28,0,5.34,1.86,8,6.33,8a15.37,15.37,0,0,0,6.55-1.56l1.8,4.92a20.26,20.26,0,0,1-9.81,2.25c-7.77,0-11.94-3.63-11.94-13.05,0-10.31,5.68-15.33,13.51-15.33a18.19,18.19,0,0,1,7.3,1.21Z" transform="translate(0.12 -1)"/><path class="cls-2" d="M371.4,139.65v-19c0-1.9-.57-3.12-2.71-3.12-1.8,0-4.3,1.28-6.68,3.53v18.56h-7.07V112.3l6.15-.41a16.49,16.49,0,0,1,.69,4.23c3.23-3,6.67-4.45,9.69-4.45,5.16,0,7.08,2.49,7.08,7.68v20.3Z" transform="translate(0.12 -1)"/><path class="cls-2" d="M392.36,140.11c-4.87,0-7.3-2-7.3-7V117.39l.18-5,.06-8,6.9-.51v8.46h8.11l-.4,5.09H392.2v15.32c0,1.49.51,2,2,2a15,15,0,0,0,5.46-1.15l1.2,4.68a18.19,18.19,0,0,1-8.52,1.79" transform="translate(0.12 -1)"/><path class="cls-2" d="M406,139.65V112.41l7-.39v27.63Zm-.16-38.91H413V107h-7.13Z" transform="translate(0.12 -1)"/><path class="cls-2" d="M420.7,98.13l7-.41v34.36c0,1.91.1,2.36,1.67,2.36a21.55,21.55,0,0,0,2.27-.11l.16,4.92a22.38,22.38,0,0,1-5.72.68c-3.6,0-5.35-1.49-5.35-5.38Z" transform="translate(0.12 -1)"/><path class="cls-2" d="M458.79,140.13a27.2,27.2,0,0,1-12.05-2.53l1.86-5.88a29,29,0,0,0,10.8,2.39c4.46,0,6.81-1.94,6.81-4.65s-1.24-4.2-7-5.88c-7.64-2.19-11-4.49-11-11.4,0-6.61,4.55-11.77,13.12-11.77a25.51,25.51,0,0,1,11.36,2.36l-1.74,5.44a28.44,28.44,0,0,0-9.16-1.85c-4.46,0-6.31,1.69-6.31,4.83,0,2.75.94,4.2,6.31,5.76,9.61,2.8,11.68,5.68,11.68,11.33,0,6.61-5,11.85-14.62,11.85" transform="translate(0.12 -1)"/><path class="cls-2" d="M526.22,139.65v-19c0-1.9-.58-3.12-2.74-3.12-1.78,0-4.28,1.28-6.65,3.53v18.56h-7.07V112.3l6.13-.41a16,16,0,0,1,.7,4.23c3.25-3,6.67-4.45,9.69-4.45,5.15,0,7.09,2.49,7.09,7.68v20.3Z" transform="translate(0.12 -1)"/><path class="cls-2" d="M548.66,140.11c-4.88,0-7.31-2-7.31-7V117.39l-3.47-.17.41-4.75,3.23-.11.82-8.51,6.15-.51v9h8.12l-.41,5.09h-7.71v15.32c0,1.49.51,2,2,2a15,15,0,0,0,5.46-1.15l1.21,4.68a18.26,18.26,0,0,1-8.53,1.79" transform="translate(0.12 -1)"/><path class="cls-2" d="M651.34,118.2c-.9-.07-1.51-.12-2.22-.12-2.45,0-3.13.52-6.26,5.5v16.07h-7V112.3l5.57-.46a24.14,24.14,0,0,1,.81,6.12c2.55-5.19,4-6.12,6.55-6.12a13.11,13.11,0,0,1,3.31.41Z" transform="translate(0.12 -1)"/><polygon class="cls-2" points="706.88 115.52 694.36 133.55 707.16 133.55 706.66 138.65 686 138.65 685.55 134.19 698.35 116.39 686.18 116.39 686.76 111.36 706.48 111.36 706.88 115.52"/><path class="cls-2" d="M627.37,108.29a25.82,25.82,0,0,0-8.79-1.83c-6.4,0-10.29,4.55-10.29,14.08,0,10.7,4.62,13.57,10,13.57a20.75,20.75,0,0,0,10.35-3l1.91,5.22a24.41,24.41,0,0,1-13.67,3.7c-10.51,0-16.08-5.78-16.08-18.9,0-12.67,6.41-20.52,17.65-20.52,5,0,7.82.67,10.87,2.07Z" transform="translate(0.12 -1)"/><path class="cls-2" d="M272.41,132.13a20.83,20.83,0,0,1-9.06,2.61c-4.63,0-6.61-2.47-6.61-7.36,0-1.39.11-3.18.23-4.21.5-4.11,2.61-6.3,5.81-6.3,2.89,0,4.45,2,4.45,6.3h-8v4.21H273.4a25.21,25.21,0,0,0,.16-3.11c0-7.69-2.6-12.55-10-12.55-8.76,0-13.75,6-13.75,15.44,0,9.19,4.65,12.89,12.59,12.89a22.33,22.33,0,0,0,11.72-3.24Z" transform="translate(0.12 -1)"/><path class="cls-2" d="M346.53,132V120.62c0-5.72-1.79-9.06-8.31-9.06a21.42,21.42,0,0,0-13.55,4.32l2.78,4.28a16.44,16.44,0,0,1,9.11-3.17c2.08,0,2.89.87,2.89,3.34v12.26a8.21,8.21,0,0,1-5.68,2.67,3.28,3.28,0,0,1-3.54-3.58c0-1.88,1.48-2.77,7.1-3.31v-3.86c-11.73,1.16-13.83,3.75-13.83,7.45,0,5.25,3.49,8.15,7.66,8.15a10.81,10.81,0,0,0,8.57-3.58c.64,2.19,2.75,3.4,6.73,3.4.81,0,1.82,0,2.85-.06l1.15-5.13c-3.7-.47-3.93-.75-3.93-2.78" transform="translate(0.12 -1)"/><path class="cls-2" d="M501.35,132V120.62c0-5.72-1.81-9.06-8.31-9.06a21.43,21.43,0,0,0-13.56,4.32l2.77,4.28a16.47,16.47,0,0,1,9.11-3.17c2.1,0,2.91.87,2.91,3.34v12.26a8.25,8.25,0,0,1-5.69,2.67,3.28,3.28,0,0,1-3.54-3.58c0-1.88,1.49-2.77,7.11-3.31v-3.86c-11.73,1.16-13.83,3.75-13.83,7.45,0,5.25,3.48,8.15,7.66,8.15a10.81,10.81,0,0,0,8.57-3.58c.64,2.19,2.73,3.4,6.72,3.4.82,0,1.8,0,2.86-.06l1.16-5.13c-3.72-.47-3.94-.75-3.94-2.78" transform="translate(0.12 -1)"/><path class="cls-2" d="M583.11,132V120.62c0-5.72-1.81-9.06-8.29-9.06a21.46,21.46,0,0,0-13.57,4.32l2.79,4.28a16.41,16.41,0,0,1,9.11-3.17c2.07,0,2.88.87,2.88,3.34v12.26a8.17,8.17,0,0,1-5.68,2.67,3.28,3.28,0,0,1-3.54-3.58c0-1.88,1.48-2.77,7.11-3.31v-3.86c-11.73,1.16-13.84,3.75-13.84,7.45,0,5.25,3.48,8.15,7.67,8.15a10.84,10.84,0,0,0,8.58-3.59c.63,2.2,2.72,3.41,6.73,3.41.8,0,1.79,0,2.84-.06l1.15-5.13c-3.7-.47-3.94-.75-3.94-2.78" transform="translate(0.12 -1)"/><path class="cls-2" d="M682.6,134.66c-2.83-.38-3.36-.68-3.45-2V112.13l-7.13.35V131c-2.43,2.26-4.63,3.22-6.38,3.22-2.09,0-2.85-1.14-2.85-3.11v-19l-7.12.28v19.9c0,5.08,1.8,7.8,7.07,7.8,3,0,6.3-1.33,9.49-4.2,0,.18.07.37.11.61.65,2.2,2.74,3.4,6.74,3.4.8,0,1.79,0,2.83,0Z" transform="translate(0.12 -1)"/></svg>