<svg width="208" height="154" viewBox="0 0 208 154" fill="none" xmlns="http://www.w3.org/2000/svg">
<path d="M75.2371 78.8486C75.2371 78.8486 71.23 72.0464 61.2123 72.0464C51.1946 72.0464 49.191 76.9052 49.191 81.7639C49.191 87.5949 58.7073 89.6592 65.2194 92.4531C71.7303 95.2465 75.2371 95.3683 75.2371 101.199C75.2371 107.5 71.4473 111.888 63.2159 111.888C49.191 111.888 46.1857 105.086 46.1857 105.086" stroke="#296140" stroke-width="4" stroke-linecap="round" stroke-linejoin="round"/>
<path d="M60.2964 72.0461V62.0856" stroke="#296140" stroke-width="4" stroke-linecap="round" stroke-linejoin="round"/>
<path d="M60.2964 111.888V123.509" stroke="#296140" stroke-width="4" stroke-linecap="round" stroke-linejoin="round"/>
<path fill-rule="evenodd" clip-rule="evenodd" d="M45.3557 39.6746L27.0948 9.79315C27.0948 9.79315 37.0553 -0.582345 49.5059 3.15283C61.9564 6.88801 64.0315 7.30303 77.7272 3.15283C91.4229 -0.997365 92.2529 9.79315 92.2529 9.79315L76.0671 39.6746H45.3557Z" stroke="#296140" stroke-width="4" stroke-linecap="round" stroke-linejoin="round"/>
<path d="M45.3557 39.6746C45.3557 39.6746 13.8142 65.4058 6.75884 91.552C-0.2965 117.698 -0.2965 129.319 12.1541 137.204C18.2656 141.075 39.0018 140.658 59.8814 140.939C81.5387 141.232 103.352 142.064 109.269 137.204C120.889 127.659 120.059 113.963 120.059 110.228C120.059 106.493 117.154 91.552 106.364 72.0461C95.5731 52.5402 76.0671 39.6746 76.0671 39.6746" stroke="#296140" stroke-width="4" stroke-linecap="round" stroke-linejoin="round"/>
<path fill-rule="evenodd" clip-rule="evenodd" d="M199.364 90.307C202.677 90.307 205.364 92.9933 205.364 96.307V139.92C205.364 143.233 202.677 145.92 199.364 145.92H71.9169C68.6032 145.92 65.9169 143.233 65.9169 139.92V118.113V96.307C65.9169 92.9933 68.6032 90.307 71.9169 90.307H199.364Z" fill="#A8D9BD" stroke="#296140" stroke-width="4" stroke-linecap="round" stroke-linejoin="round"/>
<path d="M95.7983 101.097H132.32" stroke="#296140" stroke-width="4" stroke-linecap="round" stroke-linejoin="round"/>
<path d="M95.7983 108.568H124.85" stroke="#296140" stroke-width="4" stroke-linecap="round" stroke-linejoin="round"/>
<path d="M78.3676 120.188H190.423" stroke="#296140" stroke-width="4" stroke-linecap="round" stroke-linejoin="round"/>
<path d="M78.3676 132.639H109.909" stroke="#296140" stroke-width="4" stroke-linecap="round" stroke-linejoin="round"/>
<circle cx="83.7628" cy="144.833" r="6.2253" fill="white" stroke="#296140" stroke-width="4"/>
</svg>
