<svg width="50" height="98" viewBox="0 0 50 98" fill="none" xmlns="http://www.w3.org/2000/svg">
<path fill-rule="evenodd" clip-rule="evenodd" d="M11 1V7C11 9.76142 13.2386 12 16 12H34C36.7614 12 39 9.76142 39 7V1" fill="#A8D9BD"/>
<path d="M11 1V7C11 9.76142 13.2386 12 16 12H34C36.7614 12 39 9.76142 39 7V1" stroke="#296240" stroke-width="2" stroke-linecap="round" stroke-linejoin="round"/>
<path fill-rule="evenodd" clip-rule="evenodd" d="M1 3C1 1.89543 1.89543 1 3 1H47C48.1046 1 49 1.89543 49 3V95C49 96.1046 48.1046 97 47 97H3C1.89543 97 1 96.1046 1 95V3Z" stroke="#296240" stroke-width="2" stroke-linecap="round" stroke-linejoin="round"/>
</svg>
