<svg width="45" height="87" viewBox="0 0 45 87" fill="none" xmlns="http://www.w3.org/2000/svg">
<path fill-rule="evenodd" clip-rule="evenodd" d="M9.854 1V5.73958C9.854 8.50101 12.0926 10.7396 14.854 10.7396H29.6457C32.4071 10.7396 34.6457 8.50101 34.6457 5.73958V1" fill="#A8D9BD"/>
<path d="M9.854 1V5.73958C9.854 8.50101 12.0926 10.7396 14.854 10.7396H29.6457C32.4071 10.7396 34.6457 8.50101 34.6457 5.73958V1" stroke="#296240" stroke-width="2" stroke-linecap="round" stroke-linejoin="round"/>
<path fill-rule="evenodd" clip-rule="evenodd" d="M1 3C1 1.89543 1.89543 1 3 1H41.5C42.6046 1 43.5 1.89543 43.5 3V84C43.5 85.1046 42.6046 86 41.5 86H3C1.89543 86 1 85.1046 1 84V3Z" stroke="#296240" stroke-width="2" stroke-linecap="round" stroke-linejoin="round"/>
</svg>
