<svg width="46" height="54" viewBox="0 0 46 54" fill="none" xmlns="http://www.w3.org/2000/svg">
<g filter="url(#filter0_d)">
<path d="M38 19C38 21.5519 37.3627 23.955 36.2386 26.0588C34.2879 29.7097 27.4497 37.3307 24.4401 40.6084C23.6611 41.4568 22.3389 41.4568 21.5599 40.6084C18.5503 37.3307 11.7121 29.7097 9.76136 26.0588C8.63727 23.955 8 21.5519 8 19C8 10.7157 14.7157 4 23 4C31.2843 4 38 10.7157 38 19Z" fill="white"/>
<path d="M17.5499 23.7143C17.6579 23.7143 17.7539 23.6543 17.7899 23.5343L18.2459 22.0703H21.1619L21.6059 23.5343C21.6419 23.6543 21.7379 23.7143 21.8579 23.7143H23.4539C23.6099 23.7143 23.6819 23.6183 23.6219 23.4743L20.8379 15.3023C20.8019 15.1943 20.7179 15.1343 20.6099 15.1343H18.7859C18.6779 15.1343 18.6059 15.1943 18.5579 15.3023L15.7739 23.4743C15.7259 23.6183 15.7859 23.7143 15.9419 23.7143H17.5499ZM19.6739 17.2343H19.7219C19.9619 18.0383 20.3339 19.3463 20.6699 20.4023H18.7379C19.0619 19.3463 19.4339 18.0383 19.6739 17.2343Z" fill="#296140"/>
<path d="M29.6124 23.1143V18.0383C29.6124 17.9183 29.5644 17.8343 29.4564 17.7863C28.7484 17.5103 27.8484 17.3063 26.9604 17.3063C25.3284 17.3063 24.0804 18.1343 24.0804 20.0063V20.9903C24.0804 22.6223 25.1484 23.5583 26.6964 23.5583C27.0564 23.5583 27.4764 23.4863 27.8124 23.3783C27.8244 24.2663 27.4404 24.5543 26.6844 24.5543C26.1324 24.5543 25.6284 24.3863 25.2444 24.1583C25.1244 24.0863 25.0404 24.1103 24.9684 24.2183L24.3324 25.1903C24.2604 25.3103 24.2844 25.4183 24.3804 25.4903C25.0524 25.9343 25.7604 26.1383 26.7564 26.1383C28.7724 26.1383 29.6124 25.1663 29.6124 23.1143ZM25.9404 21.0143V19.9583C25.9404 19.2023 26.3244 18.9383 26.9724 18.9383C27.2604 18.9383 27.5964 18.9863 27.7764 19.0583V21.7823C27.6084 21.9143 27.2844 21.9863 26.9364 21.9863C26.3364 21.9863 25.9404 21.7223 25.9404 21.0143Z" fill="#296140"/>
</g>
<defs>
<filter id="filter0_d" x="0" y="0" width="46" height="53.2447" filterUnits="userSpaceOnUse" color-interpolation-filters="sRGB">
<feFlood flood-opacity="0" result="BackgroundImageFix"/>
<feColorMatrix in="SourceAlpha" type="matrix" values="0 0 0 0 0 0 0 0 0 0 0 0 0 0 0 0 0 0 127 0"/>
<feOffset dy="4"/>
<feGaussianBlur stdDeviation="4"/>
<feColorMatrix type="matrix" values="0 0 0 0 0 0 0 0 0 0 0 0 0 0 0 0 0 0 0.15 0"/>
<feBlend mode="normal" in2="BackgroundImageFix" result="effect1_dropShadow"/>
<feBlend mode="normal" in="SourceGraphic" in2="effect1_dropShadow" result="shape"/>
</filter>
</defs>
</svg>
