<svg width="46" height="54" viewBox="0 0 46 54" fill="none" xmlns="http://www.w3.org/2000/svg">
<g filter="url(#filter0_d)">
<path d="M38 19C38 21.5519 37.3627 23.955 36.2386 26.0588C34.2879 29.7097 27.4497 37.3307 24.4401 40.6084C23.6611 41.4568 22.3389 41.4568 21.5599 40.6084C18.5503 37.3307 11.7121 29.7097 9.76136 26.0588C8.63727 23.955 8 21.5519 8 19C8 10.7157 14.7157 4 23 4C31.2843 4 38 10.7157 38 19Z" fill="white"/>
<path d="M13.1329 23.7142C13.2332 23.7142 13.3223 23.6585 13.3557 23.5471L13.7792 22.1876H16.4869L16.8992 23.5471C16.9326 23.6585 17.0217 23.7142 17.1332 23.7142H18.6152C18.76 23.7142 18.8269 23.6251 18.7712 23.4914L16.186 15.9031C16.1526 15.8028 16.0746 15.7471 15.9743 15.7471H14.2806C14.1803 15.7471 14.1134 15.8028 14.0689 15.9031L11.4837 23.4914C11.4392 23.6251 11.4949 23.7142 11.6397 23.7142H13.1329ZM15.1052 17.6971H15.1497C15.3726 18.4436 15.718 19.6582 16.03 20.6388H14.236C14.5369 19.6582 14.8823 18.4436 15.1052 17.6971Z" fill="#296140"/>
<path d="M18.5198 15.7471C18.3861 15.7471 18.3193 15.8139 18.3193 15.9476V17.2179C18.3193 17.3405 18.3861 17.4074 18.5198 17.4074H20.559V23.5136C20.559 23.6474 20.6258 23.7142 20.7484 23.7142H22.1524C22.275 23.7142 22.3418 23.6474 22.3418 23.5136V17.4074H24.381C24.5036 17.4074 24.5704 17.3405 24.5704 17.2179V15.9476C24.5704 15.8139 24.5036 15.7471 24.381 15.7471H18.5198Z" fill="#296140"/>
<path d="M27.1103 23.7142C27.244 23.7142 27.3109 23.6474 27.3109 23.5136V22.0428C27.3109 21.0288 27.2663 19.6471 27.1994 18.4771L27.244 18.4659C27.4557 18.9785 27.9014 19.9702 28.258 20.7056L28.8151 21.8088C28.8597 21.9202 28.9377 21.9536 29.038 21.9536H30.1077C30.208 21.9536 30.2749 21.9202 30.3306 21.8088L30.8766 20.7056C31.2331 19.9702 31.6789 18.9785 31.8906 18.4659L31.9351 18.4771C31.8683 19.6471 31.8237 21.0288 31.8237 22.0428V23.5136C31.8237 23.6474 31.9017 23.7142 32.0243 23.7142H33.406C33.5286 23.7142 33.5954 23.6474 33.5954 23.5136V15.9476C33.5954 15.8139 33.5286 15.7471 33.406 15.7471H31.8237C31.7123 15.7471 31.6454 15.7916 31.6009 15.8919L30.5869 17.8308C30.2526 18.4994 29.7734 19.5802 29.5951 20.0259H29.5506C29.3611 19.5802 28.8931 18.4994 28.5477 17.8308L27.5449 15.8919C27.5003 15.7916 27.4223 15.7471 27.322 15.7471H25.7397C25.606 15.7471 25.5391 15.8139 25.5391 15.9476V23.5136C25.5391 23.6474 25.606 23.7142 25.7397 23.7142H27.1103Z" fill="#296140"/>
</g>
<defs>
<filter id="filter0_d" x="0" y="0" width="46" height="53.2447" filterUnits="userSpaceOnUse" color-interpolation-filters="sRGB">
<feFlood flood-opacity="0" result="BackgroundImageFix"/>
<feColorMatrix in="SourceAlpha" type="matrix" values="0 0 0 0 0 0 0 0 0 0 0 0 0 0 0 0 0 0 127 0"/>
<feOffset dy="4"/>
<feGaussianBlur stdDeviation="4"/>
<feColorMatrix type="matrix" values="0 0 0 0 0 0 0 0 0 0 0 0 0 0 0 0 0 0 0.15 0"/>
<feBlend mode="normal" in2="BackgroundImageFix" result="effect1_dropShadow"/>
<feBlend mode="normal" in="SourceGraphic" in2="effect1_dropShadow" result="shape"/>
</filter>
</defs>
</svg>
