<svg width="30" height="39" viewBox="0 0 30 39" fill="none" xmlns="http://www.w3.org/2000/svg">
<path d="M30 15C30 17.5519 29.3627 19.955 28.2386 22.0588C26.2879 25.7097 19.4497 33.3307 16.4401 36.6084C15.6611 37.4568 14.3389 37.4568 13.5599 36.6084C10.5503 33.3307 3.71209 25.7097 1.76136 22.0588C0.637271 19.955 0 17.5519 0 15C0 6.71573 6.71573 0 15 0C23.2843 0 30 6.71573 30 15Z" fill="#296140"/>
<path d="M9.54995 19.7143C9.65795 19.7143 9.75395 19.6543 9.78995 19.5343L10.2459 18.0703H13.1619L13.6059 19.5343C13.6419 19.6543 13.7379 19.7143 13.8579 19.7143H15.4539C15.6099 19.7143 15.6819 19.6183 15.6219 19.4743L12.8379 11.3023C12.8019 11.1943 12.7179 11.1343 12.6099 11.1343H10.7859C10.6779 11.1343 10.6059 11.1943 10.5579 11.3023L7.77395 19.4743C7.72595 19.6183 7.78595 19.7143 7.94195 19.7143H9.54995ZM11.6739 13.2343H11.7219C11.9619 14.0383 12.3339 15.3463 12.6699 16.4023H10.7379C11.0619 15.3463 11.4339 14.0383 11.6739 13.2343Z" fill="white"/>
<path d="M21.6124 19.1143V14.0383C21.6124 13.9183 21.5644 13.8343 21.4564 13.7863C20.7484 13.5103 19.8484 13.3063 18.9604 13.3063C17.3284 13.3063 16.0804 14.1343 16.0804 16.0063V16.9903C16.0804 18.6223 17.1484 19.5583 18.6964 19.5583C19.0564 19.5583 19.4764 19.4863 19.8124 19.3783C19.8244 20.2663 19.4404 20.5543 18.6844 20.5543C18.1324 20.5543 17.6284 20.3863 17.2444 20.1583C17.1244 20.0863 17.0404 20.1103 16.9684 20.2183L16.3324 21.1903C16.2604 21.3103 16.2844 21.4183 16.3804 21.4903C17.0524 21.9343 17.7604 22.1383 18.7564 22.1383C20.7724 22.1383 21.6124 21.1663 21.6124 19.1143ZM17.9404 17.0143V15.9583C17.9404 15.2023 18.3244 14.9383 18.9724 14.9383C19.2604 14.9383 19.5964 14.9863 19.7764 15.0583V17.7823C19.6084 17.9143 19.2844 17.9863 18.9364 17.9863C18.3364 17.9863 17.9404 17.7223 17.9404 17.0143Z" fill="white"/>
</svg>
