<svg width="30" height="39" viewBox="0 0 30 39" fill="none" xmlns="http://www.w3.org/2000/svg">
<path d="M30 15C30 17.5519 29.3627 19.955 28.2386 22.0588C26.2879 25.7097 19.4497 33.3307 16.4401 36.6084C15.6611 37.4568 14.3389 37.4568 13.5599 36.6084C10.5503 33.3307 3.71209 25.7097 1.76136 22.0588C0.637271 19.955 0 17.5519 0 15C0 6.71573 6.71573 0 15 0C23.2843 0 30 6.71573 30 15Z" fill="#296140"/>
<path d="M5.13287 19.7142C5.23316 19.7142 5.3223 19.6585 5.35573 19.5471L5.77916 18.1876H8.48688L8.89916 19.5471C8.93259 19.6585 9.02173 19.7142 9.13316 19.7142H10.6152C10.76 19.7142 10.8269 19.6251 10.7712 19.4914L8.18602 11.9031C8.15259 11.8028 8.07459 11.7471 7.9743 11.7471H6.28059C6.1803 11.7471 6.11345 11.8028 6.06887 11.9031L3.48373 19.4914C3.43916 19.6251 3.49487 19.7142 3.63973 19.7142H5.13287ZM7.10516 13.6971H7.14973C7.37259 14.4436 7.71802 15.6582 8.03002 16.6388H6.23602C6.53687 15.6582 6.8823 14.4436 7.10516 13.6971Z" fill="white"/>
<path d="M10.5198 11.7471C10.3861 11.7471 10.3193 11.8139 10.3193 11.9476V13.2179C10.3193 13.3405 10.3861 13.4074 10.5198 13.4074H12.559V19.5136C12.559 19.6474 12.6258 19.7142 12.7484 19.7142H14.1524C14.275 19.7142 14.3418 19.6474 14.3418 19.5136V13.4074H16.381C16.5036 13.4074 16.5704 13.3405 16.5704 13.2179V11.9476C16.5704 11.8139 16.5036 11.7471 16.381 11.7471H10.5198Z" fill="white"/>
<path d="M19.1103 19.7142C19.244 19.7142 19.3109 19.6474 19.3109 19.5136V18.0428C19.3109 17.0288 19.2663 15.6471 19.1994 14.4771L19.244 14.4659C19.4557 14.9785 19.9014 15.9702 20.258 16.7056L20.8151 17.8088C20.8597 17.9202 20.9377 17.9536 21.038 17.9536H22.1077C22.208 17.9536 22.2749 17.9202 22.3306 17.8088L22.8766 16.7056C23.2331 15.9702 23.6789 14.9785 23.8906 14.4659L23.9351 14.4771C23.8683 15.6471 23.8237 17.0288 23.8237 18.0428V19.5136C23.8237 19.6474 23.9017 19.7142 24.0243 19.7142H25.406C25.5286 19.7142 25.5954 19.6474 25.5954 19.5136V11.9476C25.5954 11.8139 25.5286 11.7471 25.406 11.7471H23.8237C23.7123 11.7471 23.6454 11.7916 23.6009 11.8919L22.5869 13.8308C22.2526 14.4994 21.7734 15.5802 21.5951 16.0259H21.5506C21.3611 15.5802 20.8931 14.4994 20.5477 13.8308L19.5449 11.8919C19.5003 11.7916 19.4223 11.7471 19.322 11.7471H17.7397C17.606 11.7471 17.5391 11.8139 17.5391 11.9476V19.5136C17.5391 19.6474 17.606 19.7142 17.7397 19.7142H19.1103Z" fill="white"/>
</svg>
