<svg width="203" height="177" viewBox="0 0 203 177" fill="none" xmlns="http://www.w3.org/2000/svg">
<path d="M8 174.376H107.111C110.425 174.376 113.111 171.69 113.111 168.376V136.587V70.7271C113.111 67.4134 110.425 64.7271 107.111 64.7271H92.9078H89.384C86.0703 64.7271 83.384 62.0408 83.384 58.7271V41C83.384 37.6863 80.6977 35 77.384 35H8C4.68629 35 2 37.6863 2 41V168.376C2 171.69 4.68629 174.376 8 174.376Z" fill="#A8D9BD"/>
<path d="M196 137.376H96.8889C94.6798 137.376 92.8889 135.585 92.8889 133.376V5.99999C92.8889 3.79085 94.6798 2 96.8889 2H171.445L200 30.5555V133.376C200 135.585 198.209 137.376 196 137.376Z" stroke="#296140" stroke-width="4"/>
<path d="M196.111 137.376H97C94.7909 137.376 93 135.585 93 133.376V5.99999C93 3.79085 94.7909 2 97 2H171.556L200.111 30.5555V133.376C200.111 135.585 198.32 137.376 196.111 137.376Z" fill="white" stroke="#296140" stroke-width="4"/>
<path d="M83.384 34.9206H8C4.68629 34.9206 2 37.6069 2 40.9206V168.297C2 171.611 4.68629 174.297 8 174.297H107.111C110.425 174.297 113.111 171.611 113.111 168.297V136.508M83.384 34.9206V58.6477C83.384 61.9614 86.0703 64.6477 89.384 64.6477H92.9078M83.384 34.9206L92.9078 44.4444" stroke="#296140" stroke-width="4"/>
<path fill-rule="evenodd" clip-rule="evenodd" d="M130.358 60.8409L117.873 73.3259L130.345 85.7981L130.528 85.9578C131.227 86.4898 132.23 86.436 132.869 85.7968L133.029 85.614C133.561 84.9143 133.509 83.9116 132.87 83.2731L124.305 74.7075L173.232 74.7075L173.474 74.6912C174.345 74.573 175.016 73.8259 175.016 72.922C175.016 71.9359 174.217 71.1365 173.232 71.1365L125.108 71.1365L132.88 63.3633L133.04 63.1805C133.573 62.4807 133.52 61.4781 132.882 60.8396C132.185 60.143 131.055 60.1436 130.358 60.8409Z" fill="#296140"/>
<path fill-rule="evenodd" clip-rule="evenodd" d="M73.6421 120.717L86.1272 108.232L73.6549 95.7601L73.4723 95.6005C72.773 95.0685 71.7703 95.1223 71.1312 95.7614L70.9714 95.9443C70.4386 96.644 70.4913 97.6467 71.1299 98.2852L79.6954 106.851H30.7678L30.5258 106.867C29.6552 106.985 28.9841 107.732 28.9841 108.636C28.9841 109.622 29.7827 110.422 30.7678 110.422H78.8919L71.1196 118.195L70.9598 118.378C70.4271 119.078 70.4798 120.08 71.1183 120.719C71.8149 121.415 72.9448 121.415 73.6421 120.717Z" fill="#296140"/>
</svg>
