<svg width="258" height="258" viewBox="0 0 258 258" fill="none" xmlns="http://www.w3.org/2000/svg">
<rect width="258" height="258" fill="white"/>
<path d="M101 188C125.024 188 148.5 182.127 148.5 175.5C148.5 173.062 147.528 170.893 143 169L101 188Z" fill="#A8D9BD"/>
<path d="M148.5 175V194C148.5 194 137.5 203 105.75 203C74 203 63 194 63 194V183.5C63 183.5 81 192 111 188.5C141 185 148.5 175 148.5 175Z" fill="#A8D9BD"/>
<path d="M56 179.5V164.5C56 164.5 67.5 175 98.5 175C129.5 175 142 163.5 142 163.5V179C142 179 130.25 188.5 98.5 188.5C66.75 188.5 56 179.5 56 179.5Z" fill="#A8D9BD"/>
<path d="M98.5 175C122.524 175 142 169.627 142 163C142 159.38 136.189 156.134 127 153.934V158C127 158 120.5 161 99.5 164.5C78.5 168 55.3365 164.5 55.3365 164.5C58.0123 170.419 76.3171 175 98.5 175Z" fill="#A8D9BD"/>
<path d="M200 83.0419C200 84.0369 199.341 85.3627 197.246 86.892C195.193 88.39 192.093 89.8225 188.084 91.06C180.089 93.5273 168.922 95.0838 156.5 95.0838C144.078 95.0838 132.911 93.5273 124.916 91.06C120.907 89.8225 117.807 88.39 115.754 86.892C113.659 85.3627 113 84.0369 113 83.0419C113 82.0469 113.659 80.7211 115.754 79.1918C117.807 77.6938 120.907 76.2613 124.916 75.0238C132.911 72.5565 144.078 71 156.5 71C168.922 71 180.089 72.5565 188.084 75.0238C192.093 76.2613 195.193 77.6938 197.246 79.1918C199.341 80.7211 200 82.0469 200 83.0419Z" stroke="#296140" stroke-width="4" stroke-linecap="round" stroke-linejoin="round"/>
<path d="M113 129.5V107.75C113 107.75 127 116.75 156.5 116.75C186 116.75 200 107.75 200 107.75V129.5C200 129.5 186 138.5 156.5 138.5C127 138.5 113 129.5 113 129.5Z" fill="#A8D9BD"/>
<path d="M200 83.5V107.75M148 195.5C184.8 197.9 198 189.833 200 185.5V107.75M113 83.5V107.75M113 132V107.75M113 107.75C113 107.75 127 116.75 156.5 116.75C186 116.75 200 107.75 200 107.75M113 129.5C113 129.5 127 138.5 156.5 138.5C186 138.5 200 129.5 200 129.5M200 151C200 151 186 160 156.5 160C150.326 160 144.83 159.606 140 158.982M200 172C200 172 186 181 156.5 181C153.508 181 150.675 180.907 148 180.741" stroke="#296140" stroke-width="4" stroke-linecap="round" stroke-linejoin="round"/>
<path d="M127 141C127 141.801 126.432 142.988 124.366 144.415C122.362 145.799 119.331 147.126 115.405 148.273C107.581 150.558 96.6536 152 84.5 152C72.3464 152 61.4191 150.558 53.5946 148.273C49.6691 147.126 46.638 145.799 44.6336 144.415C42.568 142.988 42 141.801 42 141C42 140.199 42.568 139.012 44.6336 137.585C46.638 136.201 49.6691 134.874 53.5946 133.727C61.4191 131.442 72.3464 130 84.5 130C96.6536 130 107.581 131.442 115.405 133.727C119.331 134.874 122.362 136.201 124.366 137.585C126.432 139.012 127 140.199 127 141Z" stroke="#296140" stroke-width="4" stroke-linecap="round" stroke-linejoin="round"/>
<path d="M61.5 183C52.3109 185.2 49 188.38 49 192C49 198.627 67.4756 204 91.5 204L98.5 203.5" stroke="#296140" stroke-width="4" stroke-linecap="round" stroke-linejoin="round"/>
<path d="M127 153.934C136.189 156.134 142 159.38 142 163C142 169.627 122.524 175 98.5 175C76.3171 175 58.0123 170.419 55.3365 164.5" stroke="#296140" stroke-width="4" stroke-linecap="round" stroke-linejoin="round"/>
<path d="M101 188.5C125.024 188.5 148.5 182.627 148.5 176C148.5 173.562 147.528 171.393 143 169.5" stroke="#296140" stroke-width="4" stroke-linecap="round" stroke-linejoin="round"/>
<path d="M42 141.5V157.5C42 157.5 50.5 167.5 84.5 167.5C118.5 167.5 127 157.5 127 157.5V140.5" stroke="#296140" stroke-width="4" stroke-linecap="round" stroke-linejoin="round"/>
<path d="M56 164.5V179.5C56 179.5 66.75 188.5 98.5 188.5C130.25 188.5 142 179 142 179V163.5" stroke="#296140" stroke-width="4" stroke-linecap="round" stroke-linejoin="round"/>
<path d="M148.5 175.5V194.5C148.5 194.5 137.5 203.5 105.75 203.5C74 203.5 63 194.5 63 194.5V184" stroke="#296140" stroke-width="4" stroke-linecap="round" stroke-linejoin="round"/>
<path d="M49 192.5V207.5C49 207.5 60 216.5 91.75 216.5C123.5 216.5 134.5 207.5 134.5 207.5V200.5" stroke="#296140" stroke-width="4" stroke-linecap="round" stroke-linejoin="round"/>
<path d="M188.997 26.0761C189.087 30.8546 187.266 43.2786 181.423 48.2554C175.581 53.2322 166.006 53.0338 161.678 53.124C160.506 48.616 160.11 38.1395 167.899 32.2971C175.689 26.4548 185.21 25.7155 188.997 26.0761Z" fill="#A8D9BD"/>
<path d="M188.997 26.0761C189.087 30.8546 187.266 43.2786 181.423 48.2554C175.581 53.2322 166.006 53.0338 161.678 53.124M188.997 26.0761C185.21 25.7155 175.689 26.4548 167.899 32.2971C160.11 38.1395 160.506 48.616 161.678 53.124M188.997 26.0761L161.678 53.124M161.678 53.124C159.875 54.6567 156.161 59.8319 155.728 68.2708" stroke="#296140" stroke-width="3" stroke-linecap="round" stroke-linejoin="round"/>
<path d="M145.179 38.5181C152.536 45.6587 152.392 55.3779 151.4 59.345C147.614 59.7958 138.363 59.5614 131.655 55.0173C124.947 50.4733 123.09 37.6165 123 31.7561C127.328 31.0348 137.822 31.3775 145.179 38.5181Z" fill="#A8D9BD"/>
<path d="M151.4 59.345C152.392 55.3779 152.536 45.6587 145.179 38.5181C137.822 31.3775 127.328 31.0348 123 31.7561M151.4 59.345C147.614 59.7958 138.363 59.5614 131.655 55.0173C124.947 50.4733 123.09 37.6165 123 31.7561M151.4 59.345C142.529 48.7422 128.77 36.5346 123 31.7561M151.4 59.345C153.203 60.8777 156.864 67.4052 157.08 81.2538" stroke="#296140" stroke-width="3" stroke-linecap="round" stroke-linejoin="round"/>
<path d="M155 82C155 82 156 82 157 82C158 82 159 82 159 82" stroke="#296140" stroke-width="3" stroke-linecap="round" stroke-linejoin="round"/>
</svg>
